<svg height="512" viewBox="0 0 512 512" width="512" xmlns="http://www.w3.org/2000/svg" xmlns:xlink="http://www.w3.org/1999/xlink"><linearGradient id="linear-gradient" gradientUnits="userSpaceOnUse" x1="-8.691" x2="468.686" y1="457.191" y2="-20.186"><stop offset="0" stop-color="#003f8a"/><stop offset=".518" stop-color="#00d7df"/><stop offset="1" stop-color="#006df0"/></linearGradient><linearGradient id="linear-gradient-2" x1="-138.941" x2="338.436" xlink:href="#linear-gradient" y1="326.941" y2="-150.436"/><linearGradient id="linear-gradient-3" x1="-114.941" x2="362.436" xlink:href="#linear-gradient" y1="350.941" y2="-126.436"/><linearGradient id="linear-gradient-4" x1="-88.941" x2="388.436" xlink:href="#linear-gradient" y1="376.941" y2="-100.436"/><linearGradient id="linear-gradient-5" x1="-80.941" x2="396.436" xlink:href="#linear-gradient" y1="384.941" y2="-92.436"/><linearGradient id="linear-gradient-6" x1="-68.941" x2="408.436" xlink:href="#linear-gradient" y1="396.941" y2="-80.436"/><linearGradient id="linear-gradient-7" x1="-70.941" x2="406.436" xlink:href="#linear-gradient" y1="394.941" y2="-82.436"/><linearGradient id="linear-gradient-8" x1="-50.941" x2="426.436" xlink:href="#linear-gradient" y1="414.941" y2="-62.436"/><linearGradient id="linear-gradient-9" x1="47.059" x2="524.436" xlink:href="#linear-gradient" y1="512.941" y2="35.564"/><g id="ATM"><path d="m496 56h-480a8 8 0 0 0 -8 8v232a8 8 0 0 0 8 8h128v153a8 8 0 0 0 8 8h208a8 8 0 0 0 8-8v-153h128a8 8 0 0 0 8-8v-232a8 8 0 0 0 -8-8zm-472 16h464v120h-464zm0 216v-80h120v80zm136 161v-241h192v241zm328-161h-120v-80h120z" fill="url(#linear-gradient)"/><path d="m112 88h-64a8 8 0 0 0 -8 8v24a8 8 0 0 0 8 8h64a8 8 0 0 0 8-8v-24a8 8 0 0 0 -8-8zm-8 24h-48v-8h48z" fill="url(#linear-gradient-2)"/><path d="m112 136h-64a8 8 0 0 0 -8 8v24a8 8 0 0 0 8 8h64a8 8 0 0 0 8-8v-24a8 8 0 0 0 -8-8zm-8 24h-48v-8h48z" fill="url(#linear-gradient-3)"/><path d="m240 88h-96a8 8 0 0 0 0 16h96a8 8 0 0 0 0-16z" fill="url(#linear-gradient-4)"/><path d="m224 112h-80a8 8 0 0 0 0 16h80a8 8 0 0 0 0-16z" fill="url(#linear-gradient-5)"/><path d="m224 136h-80a8 8 0 0 0 0 16h80a8 8 0 0 0 0-16z" fill="url(#linear-gradient-6)"/><path d="m168 160h-24a8 8 0 0 0 0 16h24a8 8 0 0 0 0-16z" fill="url(#linear-gradient-7)"/><path d="m200 160h-8a8 8 0 0 0 0 16h8a8 8 0 0 0 0-16z" fill="url(#linear-gradient-8)"/><g fill="url(#linear-gradient-9)"><path d="m272 288a8 8 0 0 0 0-16h-8a8 8 0 0 0 -16 0h-8a8 8 0 0 0 -8 8v24a8 8 0 0 0 8 8h24v8h-24a8 8 0 0 0 0 16h8a8 8 0 0 0 16 0h8a8 8 0 0 0 8-8v-24a8 8 0 0 0 -8-8h-24v-8z"/><path d="m256 240a64 64 0 1 0 64 64 64.072 64.072 0 0 0 -64-64zm0 112a48 48 0 1 1 48-48 48.054 48.054 0 0 1 -48 48z"/></g></g></svg>