<svg id="Bank" height="512" viewBox="0 0 512 512" width="512" xmlns="http://www.w3.org/2000/svg" xmlns:xlink="http://www.w3.org/1999/xlink"><linearGradient id="linear-gradient" gradientUnits="userSpaceOnUse" x1="34.941" x2="543.008" y1="541.059" y2="32.992"><stop offset="0" stop-color="#003f8a"/><stop offset=".518" stop-color="#00d7df"/><stop offset="1" stop-color="#006df0"/></linearGradient><linearGradient id="linear-gradient-2" x1="-69.059" x2="439.008" xlink:href="#linear-gradient" y1="437.059" y2="-71.008"/><linearGradient id="linear-gradient-3" x1="28.941" x2="537.008" xlink:href="#linear-gradient" y1="535.059" y2="26.992"/><linearGradient id="linear-gradient-4" x1="116.941" x2="625.008" xlink:href="#linear-gradient" y1="623.059" y2="114.992"/><linearGradient id="linear-gradient-5" x1="-11.059" x2="497.008" xlink:href="#linear-gradient" y1="495.059" y2="-13.008"/><linearGradient id="linear-gradient-7" x1="-35.059" x2="473.008" xlink:href="#linear-gradient" y1="471.059" y2="-37.008"/><path d="m496 464h-16v-200a8 8 0 0 0 -8-8h-104v-224a8 8 0 0 0 -8-8h-208a8 8 0 0 0 -8 8v432h-56v-40.581a56 56 0 1 0 -16 0v11.637l-20.422-10.211a8 8 0 1 0 -7.156 14.31l27.578 13.789v11.056h-56a8 8 0 0 0 0 16h480a8 8 0 0 0 0-16zm-456-96a40 40 0 1 1 48 39.2v-23.2a8 8 0 0 0 -16 0v23.2a40.067 40.067 0 0 1 -32-39.2zm120-328h192v424h-16v-96a8 8 0 0 0 -8-8h-144a8 8 0 0 0 -8 8v96h-16zm32 424v-88h56v88zm72 0v-88h56v88zm104 0v-192h96v192z" fill="url(#linear-gradient)"/><path d="m256 176a64 64 0 1 0 -64-64 64.072 64.072 0 0 0 64 64zm0-112a48 48 0 1 1 -48 48 48.055 48.055 0 0 1 48-48z" fill="url(#linear-gradient-2)"/><path d="m184 344h144a8 8 0 0 0 8-8v-56a8 8 0 0 0 -8-8h-144a8 8 0 0 0 -8 8v56a8 8 0 0 0 8 8zm136-56v40h-56v-40zm-128 0h56v40h-56z" fill="url(#linear-gradient-3)"/><path d="m448 288h-64a8 8 0 0 0 -8 8v56a8 8 0 0 0 8 8h64a8 8 0 0 0 8-8v-56a8 8 0 0 0 -8-8zm-8 56h-48v-40h48z" fill="url(#linear-gradient-4)"/><path d="m184 264h144a8 8 0 0 0 8-8v-56a8 8 0 0 0 -8-8h-144a8 8 0 0 0 -8 8v56a8 8 0 0 0 8 8zm136-56v40h-56v-40zm-128 0h56v40h-56z" fill="url(#linear-gradient-5)"/><path d="m232 128a8 8 0 0 0 0 16h16a8 8 0 0 0 16 0h16a8 8 0 0 0 8-8v-24a8 8 0 0 0 -8-8h-40v-8h40a8 8 0 0 0 0-16h-16a8 8 0 0 0 -16 0h-16a8 8 0 0 0 -8 8v24a8 8 0 0 0 8 8h40v8z" fill="url(#linear-gradient-2)"/><path d="m80 368a8 8 0 0 0 8-8v-8a8 8 0 0 0 -16 0v8a8 8 0 0 0 8 8z" fill="url(#linear-gradient-7)"/></svg>