<svg height="512" viewBox="0 0 512 512" width="512" xmlns="http://www.w3.org/2000/svg" xmlns:xlink="http://www.w3.org/1999/xlink"><linearGradient id="linear-gradient" gradientUnits="userSpaceOnUse" x1="21.176" x2="484.073" y1="498.824" y2="35.927"><stop offset="0" stop-color="#003f8a"/><stop offset=".518" stop-color="#00d7df"/><stop offset="1" stop-color="#006df0"/></linearGradient><linearGradient id="linear-gradient-2" x1="33.176" x2="496.073" xlink:href="#linear-gradient" y1="510.823" y2="47.927"/><linearGradient id="linear-gradient-3" x1="29.176" x2="492.073" xlink:href="#linear-gradient" y1="506.823" y2="43.927"/><linearGradient id="linear-gradient-4" x1="55.176" x2="518.073" xlink:href="#linear-gradient" y1="532.824" y2="69.927"/><g id="Bank-2" data-name="Bank"><path d="m280 240a8 8 0 0 0 0-16h-16a8 8 0 0 0 -16 0h-16a8 8 0 0 0 -8 8v32a8 8 0 0 0 8 8h40v16h-40a8 8 0 0 0 0 16h16a8 8 0 0 0 16 0h16a8 8 0 0 0 8-8v-32a8 8 0 0 0 -8-8h-40v-16z" fill="url(#linear-gradient)"/><path d="m472 152a8 8 0 0 0 8-8v-24h16a8 8 0 0 0 8-8v-32a8 8 0 0 0 -5.938-7.73l-240-64a8.009 8.009 0 0 0 -4.124 0l-240 64a8 8 0 0 0 -5.938 7.73v32a8 8 0 0 0 8 8h16v24a8 8 0 0 0 8 8h16v256h-16a8 8 0 0 0 -8 8v24h-16a8 8 0 0 0 -8 8v48a8 8 0 0 0 8 8h480a8 8 0 0 0 8-8v-48a8 8 0 0 0 -8-8h-16v-24a8 8 0 0 0 -8-8h-16v-256zm-448-65.854 232-61.866 232 61.866v17.854h-464zm24 33.854h416v16h-416zm280 288v-24a8 8 0 0 0 -8-8h-8v-8h24a8 8 0 0 0 8-8v-24a8 8 0 0 0 -8-8h-47.079a72 72 0 1 0 -65.842 0h-15.079a8 8 0 0 0 -8 8v16h-24a8 8 0 0 0 -8 8v24a8 8 0 0 0 8 8h8v16h-80v-256h304v256zm-112-56v-8h112v8zm80 16v8h-112v-8zm-96 24h112v8h-112zm56-72a56 56 0 1 1 56-56 56.063 56.063 0 0 1 -56 56zm-184-168h16v256h-16zm416 336h-464v-32h464zm-24-48h-416v-16h416zm-24-32h-16v-256h16z" fill="url(#linear-gradient-2)"/><path d="m88 464h-48a8 8 0 0 0 0 16h48a8 8 0 0 0 0-16z" fill="url(#linear-gradient-3)"/><path d="m120 464h-8a8 8 0 0 0 0 16h8a8 8 0 0 0 0-16z" fill="url(#linear-gradient-4)"/></g></svg>