<svg height="512" viewBox="0 0 512 512" width="512" xmlns="http://www.w3.org/2000/svg" xmlns:xlink="http://www.w3.org/1999/xlink"><linearGradient id="linear-gradient" gradientUnits="userSpaceOnUse" x1="21.715" x2="544.699" y1="491.126" y2="-31.857"><stop offset="0" stop-color="#003f8a"/><stop offset=".518" stop-color="#00d7df"/><stop offset="1" stop-color="#006df0"/></linearGradient><linearGradient id="linear-gradient-2" x1="-94.706" x2="428.278" xlink:href="#linear-gradient" y1="374.706" y2="-148.278"/><linearGradient id="linear-gradient-3" x1="65.294" x2="588.278" xlink:href="#linear-gradient" y1="534.706" y2="11.722"/><linearGradient id="linear-gradient-5" x1="-14.706" x2="508.278" xlink:href="#linear-gradient" y1="454.706" y2="-68.278"/><linearGradient id="linear-gradient-7" x1="98.431" x2="621.415" xlink:href="#linear-gradient" y1="567.843" y2="44.859"/><linearGradient id="linear-gradient-8" x1="-127.843" x2="395.141" xlink:href="#linear-gradient" y1="341.569" y2="-181.415"/><linearGradient id="linear-gradient-9" x1="83.294" x2="606.278" xlink:href="#linear-gradient" y1="552.706" y2="29.722"/><g id="Blub"><path d="m256 48c-74.991 0-136 61.009-136 136a135.707 135.707 0 0 0 88 127.283v32.717h-16a8 8 0 0 0 -8 8v32a8 8 0 0 0 8 8v24a8 8 0 0 0 8 8v24a8 8 0 0 0 8 8h16v24a24.027 24.027 0 0 0 24 24h16a24.027 24.027 0 0 0 24-24v-24h16a8 8 0 0 0 8-8v-24a8 8 0 0 0 8-8v-24a8 8 0 0 0 8-8v-32a8 8 0 0 0 -8-8h-16v-32.717a135.707 135.707 0 0 0 88-127.283c0-74.991-61.009-136-136-136zm16 432a8.009 8.009 0 0 1 -8 8h-16a8.009 8.009 0 0 1 -8-8v-24h32zm24-40h-80v-16h80zm8-32h-96v-16h96zm8-32h-112v-16h112zm-18.5-77.98a8 8 0 0 0 -5.5 7.6v38.38h-64v-38.38a8 8 0 0 0 -5.5-7.6 120 120 0 1 1 75.006 0z" fill="url(#linear-gradient)"/><path d="m256 40a8 8 0 0 0 8-8v-16a8 8 0 0 0 -16 0v16a8 8 0 0 0 8 8z" fill="url(#linear-gradient-2)"/><path d="m424 176h-16a8 8 0 0 0 0 16h16a8 8 0 0 0 0-16z" fill="url(#linear-gradient-3)"/><path d="m104 176h-16a8 8 0 0 0 0 16h16a8 8 0 0 0 0-16z" fill="url(#linear-gradient-2)"/><path d="m363.48 84.52a7.975 7.975 0 0 0 5.657-2.344l11.314-11.313a8 8 0 0 0 -11.314-11.314l-11.313 11.314a8 8 0 0 0 5.656 13.657z" fill="url(#linear-gradient-5)"/><path d="m142.863 285.824-11.314 11.313a8 8 0 0 0 11.314 11.314l11.313-11.314a8 8 0 0 0 -11.313-11.313z" fill="url(#linear-gradient-5)"/><path d="m369.137 285.824a8 8 0 1 0 -11.313 11.313l11.313 11.314a8 8 0 0 0 11.314-11.314z" fill="url(#linear-gradient-7)"/><path d="m142.863 82.176a8 8 0 1 0 11.313-11.313l-11.313-11.314a8 8 0 0 0 -11.314 11.314z" fill="url(#linear-gradient-8)"/><path d="m456 176h-8a8 8 0 0 0 0 16h8a8 8 0 0 0 0-16z" fill="url(#linear-gradient-9)"/><g fill="url(#linear-gradient-5)"><path d="m280 160a8 8 0 0 0 0-16h-16a8 8 0 0 0 -16 0h-16a8 8 0 0 0 -8 8v32a8 8 0 0 0 8 8h40v16h-40a8 8 0 0 0 0 16h16a8 8 0 0 0 16 0h16a8 8 0 0 0 8-8v-32a8 8 0 0 0 -8-8h-40v-16z"/><path d="m256 112a72 72 0 1 0 72 72 72.081 72.081 0 0 0 -72-72zm0 128a56 56 0 1 1 56-56 56.064 56.064 0 0 1 -56 56z"/></g></g></svg>