<svg height="512" viewBox="0 0 512 512" width="512" xmlns="http://www.w3.org/2000/svg" xmlns:xlink="http://www.w3.org/1999/xlink"><linearGradient id="linear-gradient" gradientUnits="userSpaceOnUse" x1="15.882" x2="584.816" y1="496.118" y2="-72.816"><stop offset="0" stop-color="#003f8a"/><stop offset=".518" stop-color="#00d7df"/><stop offset="1" stop-color="#006df0"/></linearGradient><linearGradient id="linear-gradient-2" x1="-144.118" x2="424.816" xlink:href="#linear-gradient" y1="336.118" y2="-232.816"/><linearGradient id="linear-gradient-3" x1="-118.118" x2="450.816" xlink:href="#linear-gradient" y1="362.118" y2="-206.816"/><linearGradient id="linear-gradient-4" x1="89.882" x2="658.816" xlink:href="#linear-gradient" y1="570.118" y2="1.184"/><linearGradient id="linear-gradient-5" x1="1.882" x2="570.816" xlink:href="#linear-gradient" y1="482.118" y2="-86.816"/><g id="Board"><path d="m496 304h-24v-248a8 8 0 0 0 -8-8h-416a8 8 0 0 0 -8 8v248h-24a8 8 0 0 0 -8 8v32a8 8 0 0 0 8 8h53.394l-29.086 101.8a8 8 0 0 0 7.692 10.2h64a8 8 0 0 0 7.692-5.8l30.343-106.2h211.93l30.343 106.2a8 8 0 0 0 7.692 5.8h64a8 8 0 0 0 7.692-10.2l-29.086-101.8h53.394a8 8 0 0 0 8-8v-32a8 8 0 0 0 -8-8zm-440-240h400v240h-24v-16a8 8 0 0 0 -8-8h-80a8 8 0 0 0 -8 8v16h-280zm360 240h-64v-8h64zm-310.034 144h-47.36l27.428-96h47.36zm347.428 0h-47.36l-27.428-96h47.36zm34.606-112h-464v-16h464z" fill="url(#linear-gradient)"/><path d="m136 88a8 8 0 0 0 -8-8h-48a8 8 0 0 0 0 16h48a8 8 0 0 0 8-8z" fill="url(#linear-gradient-2)"/><path d="m152 96h8a8 8 0 0 0 0-16h-8a8 8 0 0 0 0 16z" fill="url(#linear-gradient-3)"/><path d="m416 248h8a8 8 0 0 0 0-16h-8a8 8 0 0 0 0 16z" fill="url(#linear-gradient-4)"/><path d="m392 248a8 8 0 0 0 0-16h-32v-136a8 8 0 0 0 -8-8h-48a8 8 0 0 0 -8 8v136h-8v-88a8 8 0 0 0 -8-8h-48a8 8 0 0 0 -8 8v88h-8v-56a8 8 0 0 0 -8-8h-48a8 8 0 0 0 -8 8v56h-32a8 8 0 0 0 0 16zm-80-144h32v128h-32zm-144 128v-48h32v48zm72 0v-80h32v80z" fill="url(#linear-gradient-5)"/></g></svg>