<svg height="512" viewBox="0 0 512 512" width="512" xmlns="http://www.w3.org/2000/svg" xmlns:xlink="http://www.w3.org/1999/xlink"><linearGradient id="linear-gradient" gradientUnits="userSpaceOnUse" x1="8.829" x2="509.02" y1="490.476" y2="-9.714"><stop offset="0" stop-color="#003f8a"/><stop offset=".518" stop-color="#00d7df"/><stop offset="1" stop-color="#006df0"/></linearGradient><linearGradient id="linear-gradient-2" x1="101.176" x2="601.367" xlink:href="#linear-gradient" y1="582.824" y2="82.633"/><linearGradient id="linear-gradient-3" x1="73.176" x2="573.367" xlink:href="#linear-gradient" y1="554.824" y2="54.633"/><linearGradient id="linear-gradient-4" x1="129.149" x2="629.339" xlink:href="#linear-gradient" y1="610.851" y2="110.661"/><linearGradient id="linear-gradient-5" x1="125.176" x2="625.367" xlink:href="#linear-gradient" y1="606.824" y2="106.633"/><linearGradient id="linear-gradient-6" x1="97.176" x2="597.367" xlink:href="#linear-gradient" y1="578.824" y2="78.633"/><linearGradient id="linear-gradient-7" x1="153.176" x2="653.367" xlink:href="#linear-gradient" y1="634.824" y2="134.633"/><linearGradient id="linear-gradient-8" x1="149.176" x2="649.367" xlink:href="#linear-gradient" y1="630.824" y2="130.633"/><linearGradient id="linear-gradient-9" x1="121.176" x2="621.367" xlink:href="#linear-gradient" y1="602.824" y2="102.633"/><linearGradient id="linear-gradient-10" x1="159.176" x2="659.367" xlink:href="#linear-gradient" y1="640.824" y2="140.633"/><linearGradient id="linear-gradient-11" x1="177.176" x2="677.367" xlink:href="#linear-gradient" y1="658.824" y2="158.633"/><linearGradient id="linear-gradient-12" x1="37.176" x2="537.367" xlink:href="#linear-gradient" y1="518.824" y2="18.633"/><linearGradient id="linear-gradient-13" x1="61.176" x2="561.367" xlink:href="#linear-gradient" y1="542.824" y2="42.633"/><linearGradient id="linear-gradient-14" x1="-150.824" x2="349.367" xlink:href="#linear-gradient" y1="330.824" y2="-169.367"/><linearGradient id="linear-gradient-15" x1="-126.824" x2="373.367" xlink:href="#linear-gradient" y1="354.824" y2="-145.367"/><g id="Calculator"><path d="m448 208h-88v-192a8 8 0 0 0 -8-8h-320a8 8 0 0 0 -8 8v480a8 8 0 0 0 8 8h416a24.028 24.028 0 0 0 24-24v-248a24.028 24.028 0 0 0 -24-24zm8 24v40h-176v-40a8.009 8.009 0 0 1 8-8h160a8.009 8.009 0 0 1 8 8zm-326.624-184a24.039 24.039 0 0 0 22.624 16h80a24.039 24.039 0 0 0 22.624-16h65.376v160h-32a24.028 24.028 0 0 0 -24 24v232h-200v-416zm214.624 160h-8v-168a8 8 0 0 0 -8-8h-72v-8h88zm-104-184v16a8.009 8.009 0 0 1 -8 8h-80a8.009 8.009 0 0 1 -8-8v-16zm-200 0h88v8h-72a8 8 0 0 0 -8 8v432a8 8 0 0 0 8 8h208a23.889 23.889 0 0 0 1.376 8h-225.376zm416 456a8.009 8.009 0 0 1 -8 8h-160a8.009 8.009 0 0 1 -8-8v-192h176z" fill="url(#linear-gradient)"/><path d="m352 336h32a8 8 0 0 0 8-8v-24a8 8 0 0 0 -8-8h-32a8 8 0 0 0 -8 8v24a8 8 0 0 0 8 8zm8-24h16v8h-16z" fill="url(#linear-gradient-2)"/><path d="m296 336h32a8 8 0 0 0 8-8v-24a8 8 0 0 0 -8-8h-32a8 8 0 0 0 -8 8v24a8 8 0 0 0 8 8zm8-24h16v8h-16z" fill="url(#linear-gradient-3)"/><path d="m408 336h32a8 8 0 0 0 8-8v-24a8 8 0 0 0 -8-8h-32a8 8 0 0 0 -8 8v24a8 8 0 0 0 8 8zm8-24h16v8h-16z" fill="url(#linear-gradient-4)"/><path d="m352 384h32a8 8 0 0 0 8-8v-24a8 8 0 0 0 -8-8h-32a8 8 0 0 0 -8 8v24a8 8 0 0 0 8 8zm8-24h16v8h-16z" fill="url(#linear-gradient-5)"/><path d="m296 384h32a8 8 0 0 0 8-8v-24a8 8 0 0 0 -8-8h-32a8 8 0 0 0 -8 8v24a8 8 0 0 0 8 8zm8-24h16v8h-16z" fill="url(#linear-gradient-6)"/><path d="m408 384h32a8 8 0 0 0 8-8v-24a8 8 0 0 0 -8-8h-32a8 8 0 0 0 -8 8v24a8 8 0 0 0 8 8zm8-24h16v8h-16z" fill="url(#linear-gradient-7)"/><path d="m352 432h32a8 8 0 0 0 8-8v-24a8 8 0 0 0 -8-8h-32a8 8 0 0 0 -8 8v24a8 8 0 0 0 8 8zm8-24h16v8h-16z" fill="url(#linear-gradient-8)"/><path d="m296 432h32a8 8 0 0 0 8-8v-24a8 8 0 0 0 -8-8h-32a8 8 0 0 0 -8 8v24a8 8 0 0 0 8 8zm8-24h16v8h-16z" fill="url(#linear-gradient-9)"/><path d="m296 480h88a8 8 0 0 0 8-8v-24a8 8 0 0 0 -8-8h-88a8 8 0 0 0 -8 8v24a8 8 0 0 0 8 8zm8-24h72v8h-72z" fill="url(#linear-gradient-10)"/><path d="m408 432h32a8 8 0 0 0 8-8v-24a8 8 0 0 0 -8-8h-32a8 8 0 0 0 -8 8v24a8 8 0 0 0 8 8zm8-24h16v8h-16z" fill="url(#linear-gradient-11)"/><path d="m296 248h40a8 8 0 0 0 0-16h-40a8 8 0 0 0 0 16z" fill="url(#linear-gradient-12)"/><path d="m360 248h8a8 8 0 0 0 0-16h-8a8 8 0 0 0 0 16z" fill="url(#linear-gradient-13)"/><path d="m80 88h40a8 8 0 0 0 0-16h-40a8 8 0 0 0 0 16z" fill="url(#linear-gradient-14)"/><path d="m144 88h8a8 8 0 0 0 0-16h-8a8 8 0 0 0 0 16z" fill="url(#linear-gradient-15)"/></g></svg>