<svg height="512" viewBox="0 0 512 512" width="512" xmlns="http://www.w3.org/2000/svg" xmlns:xlink="http://www.w3.org/1999/xlink"><linearGradient id="linear-gradient" gradientUnits="userSpaceOnUse" x1="31.294" x2="529.405" y1="524.706" y2="26.595"><stop offset="0" stop-color="#003f8a"/><stop offset=".518" stop-color="#00d7df"/><stop offset="1" stop-color="#006df0"/></linearGradient><linearGradient id="linear-gradient-2" x1="59.544" x2="557.655" xlink:href="#linear-gradient" y1="552.956" y2="54.845"/><linearGradient id="linear-gradient-3" x1="21.294" x2="519.405" xlink:href="#linear-gradient" y1="514.706" y2="16.595"/><linearGradient id="linear-gradient-4" x1="-20.013" x2="478.098" xlink:href="#linear-gradient" y1="473.399" y2="-24.712"/><g id="Cash"><path d="m112 464h-56a8 8 0 0 0 0 16h56a8 8 0 0 0 0-16z" fill="url(#linear-gradient)"/><path d="m144 464h-7a8 8 0 0 0 0 16h7a8 8 0 0 0 0-16z" fill="url(#linear-gradient-2)"/><path d="m304 232a8 8 0 0 0 0-16h-16a8 8 0 0 0 -16 0h-16a8 8 0 0 0 -8 8v32a8 8 0 0 0 8 8h40v16h-40a8 8 0 0 0 0 16h16a8 8 0 0 0 16 0h16a8 8 0 0 0 8-8v-32a8 8 0 0 0 -8-8h-40v-16z" fill="url(#linear-gradient-3)"/><path d="m480 144h-168v-96a40.045 40.045 0 0 0 -40-40h-208a40.045 40.045 0 0 0 -40 40v416a40.045 40.045 0 0 0 40 40h208a40.045 40.045 0 0 0 40-40v-96h168a8 8 0 0 0 8-8v-208a8 8 0 0 0 -8-8zm-328 16h264.518a64.107 64.107 0 0 0 55.482 55.482v81.036a64.107 64.107 0 0 0 -55.482 55.482h-264.518zm320 39.321a48.11 48.11 0 0 1 -39.321-39.321h39.321zm-258.246-175.321-4 16h-83.508l-4-16zm82.246 440a24.027 24.027 0 0 1 -24 24h-208a24.027 24.027 0 0 1 -24-24v-416a24.027 24.027 0 0 1 24-24h41.754l6.485 25.94a8 8 0 0 0 7.761 6.06h96a8 8 0 0 0 7.761-6.06l6.485-25.94h41.754a24.027 24.027 0 0 1 24 24v96h-144v-32a8 8 0 0 0 -16 0v280a8 8 0 0 0 16 0v-24h144zm136.679-112a48.11 48.11 0 0 1 39.321-39.321v39.321z" fill="url(#linear-gradient-4)"/><path d="m280 184a72 72 0 1 0 72 72 72.081 72.081 0 0 0 -72-72zm0 128a56 56 0 1 1 56-56 56.064 56.064 0 0 1 -56 56z" fill="url(#linear-gradient-3)"/></g></svg>