<?xml version="1.0"?>
<svg xmlns="http://www.w3.org/2000/svg" xmlns:xlink="http://www.w3.org/1999/xlink" viewBox="0 0 512 512" width="512" height="512"><defs><linearGradient id="linear-gradient" x1="54.353" y1="525.647" x2="504.363" y2="75.637" gradientUnits="userSpaceOnUse"><stop offset="0" stop-color="#003f8a"/><stop offset="0.518" stop-color="#00d7df"/><stop offset="1" stop-color="#006df0"/></linearGradient><linearGradient id="linear-gradient-2" x1="-7.647" y1="463.647" x2="442.363" y2="13.637" xlink:href="#linear-gradient"/><linearGradient id="linear-gradient-4" x1="20.353" y1="491.647" x2="470.363" y2="41.637" xlink:href="#linear-gradient"/><linearGradient id="linear-gradient-5" x1="50.103" y1="521.397" x2="500.113" y2="71.387" xlink:href="#linear-gradient"/></defs><g id="Cash-2" data-name="Cash"><path d="M496,192H368V48a8,8,0,0,0-8-8H152a8,8,0,0,0-8,8V192H16a8,8,0,0,0-8,8V464a8,8,0,0,0,8,8H496a8,8,0,0,0,8-8V200A8,8,0,0,0,496,192Zm-30.344,16L368,263.338V208ZM160,111.482A64.107,64.107,0,0,0,215.482,56h81.036A64.107,64.107,0,0,0,352,111.482V272.4l-96,54.4-96-54.4ZM352,95.321A48.109,48.109,0,0,1,312.679,56H352ZM199.321,56A48.109,48.109,0,0,1,160,95.321V56ZM144,263.338,46.344,208H144ZM24,456V213.729L252.056,342.96a8,8,0,0,0,7.888,0L488,213.729V456Z" style="fill:url(#linear-gradient)"/><path d="M264,240h16a8,8,0,0,0,8-8V200a8,8,0,0,0-8-8H240V176h40a8,8,0,0,0,0-16H264a8,8,0,0,0-16,0H232a8,8,0,0,0-8,8v32a8,8,0,0,0,8,8h40v16H232a8,8,0,0,0,0,16h16a8,8,0,0,0,16,0Z" style="fill:url(#linear-gradient-2)"/><path d="M328,200a72,72,0,1,0-72,72A72.081,72.081,0,0,0,328,200Zm-128,0a56,56,0,1,1,56,56A56.063,56.063,0,0,1,200,200Z" style="fill:url(#linear-gradient-2)"/><path d="M112,424H48a8,8,0,0,0,0,16h64a8,8,0,0,0,0-16Z" style="fill:url(#linear-gradient-4)"/><path d="M143,424h-7a8,8,0,0,0,0,16h7a8,8,0,0,0,0-16Z" style="fill:url(#linear-gradient-5)"/></g></svg>
