<svg height="512" viewBox="0 0 512 512" width="512" xmlns="http://www.w3.org/2000/svg" xmlns:xlink="http://www.w3.org/1999/xlink"><linearGradient id="linear-gradient" gradientUnits="userSpaceOnUse" x1="15.412" x2="544.84" y1="496.588" y2="-32.84"><stop offset="0" stop-color="#003f8a"/><stop offset=".518" stop-color="#00d7df"/><stop offset="1" stop-color="#006df0"/></linearGradient><linearGradient id="linear-gradient-2" x1="65.412" x2="594.84" xlink:href="#linear-gradient" y1="546.588" y2="17.16"/><linearGradient id="linear-gradient-3" x1="89.412" x2="618.84" xlink:href="#linear-gradient" y1="570.588" y2="41.16"/><linearGradient id="linear-gradient-5" x1="-96.588" x2="432.84" xlink:href="#linear-gradient" y1="384.588" y2="-144.84"/><linearGradient id="linear-gradient-6" x1="-56.588" x2="472.84" xlink:href="#linear-gradient" y1="424.588" y2="-104.84"/><linearGradient id="linear-gradient-7" x1="-52.588" x2="476.84" xlink:href="#linear-gradient" y1="428.588" y2="-100.84"/><linearGradient id="linear-gradient-9" x1="-34.588" x2="494.84" xlink:href="#linear-gradient" y1="446.588" y2="-82.84"/><g id="Clipboard"><path d="m416 8h-320a8 8 0 0 0 -8 8v480a8 8 0 0 0 8 8h320a8 8 0 0 0 8-8v-480a8 8 0 0 0 -8-8zm-222.624 40a24.039 24.039 0 0 0 22.624 16h80a24.039 24.039 0 0 0 22.624-16h65.376v416h-256v-416zm110.624-24v16a8.009 8.009 0 0 1 -8 8h-80a8.009 8.009 0 0 1 -8-8v-16zm104 464h-304v-464h88v8h-72a8 8 0 0 0 -8 8v432a8 8 0 0 0 8 8h272a8 8 0 0 0 8-8v-432a8 8 0 0 0 -8-8h-72v-8h88z" fill="url(#linear-gradient)"/><path d="m144 456h40a8 8 0 0 0 0-16h-40a8 8 0 0 0 0 16z" fill="url(#linear-gradient-2)"/><path d="m216 440h-8a8 8 0 0 0 0 16h8a8 8 0 0 0 0-16z" fill="url(#linear-gradient-3)"/><path d="m152 336h208a8 8 0 0 0 8-8v-144a8 8 0 0 0 -8-8h-208a8 8 0 0 0 -8 8v144a8 8 0 0 0 8 8zm8-16v-96h40v96zm192 0h-136v-96h136zm0-128v16h-136v-16zm-192 0h40v16h-40z" fill="url(#linear-gradient)"/><path d="m152 144h48a8 8 0 0 0 8-8v-48a8 8 0 0 0 -8-8h-48a8 8 0 0 0 -8 8v48a8 8 0 0 0 8 8zm8-48h32v32h-32z" fill="url(#linear-gradient-5)"/><path d="m232 96h96a8 8 0 0 0 0-16h-96a8 8 0 0 0 0 16z" fill="url(#linear-gradient-6)"/><path d="m232 120h64a8 8 0 0 0 0-16h-64a8 8 0 0 0 0 16z" fill="url(#linear-gradient-7)"/><path d="m232 144h16a8 8 0 0 0 0-16h-16a8 8 0 0 0 0 16z" fill="url(#linear-gradient-7)"/><path d="m272 128a8 8 0 0 0 0 16h8a8 8 0 0 0 0-16z" fill="url(#linear-gradient-9)"/></g></svg>