<svg height="512" viewBox="0 0 512 512" width="512" xmlns="http://www.w3.org/2000/svg" xmlns:xlink="http://www.w3.org/1999/xlink"><linearGradient id="linear-gradient" gradientUnits="userSpaceOnUse" x1="22.353" x2="425.82" y1="469.647" y2="66.18"><stop offset="0" stop-color="#003f8a"/><stop offset=".518" stop-color="#00d7df"/><stop offset="1" stop-color="#006df0"/></linearGradient><linearGradient id="linear-gradient-2" x1="-1.647" x2="401.82" xlink:href="#linear-gradient" y1="445.647" y2="42.18"/><linearGradient id="linear-gradient-3" x1="26.353" x2="429.82" xlink:href="#linear-gradient" y1="473.647" y2="70.18"/><linearGradient id="linear-gradient-4" x1="12.353" x2="415.82" xlink:href="#linear-gradient" y1="459.647" y2="56.18"/><g id="Computer"><path d="m480 72h-448a24.027 24.027 0 0 0 -24 24v280a24.027 24.027 0 0 0 24 24h156.9l-10.667 32h-26.233a8 8 0 0 0 -8 8v24a8 8 0 0 0 8 8h208a8 8 0 0 0 8-8v-24a8 8 0 0 0 -8-8h-26.234l-10.666-32h156.9a24.027 24.027 0 0 0 24-24v-280a24.027 24.027 0 0 0 -24-24zm-456 24a8.009 8.009 0 0 1 8-8h448a8.009 8.009 0 0 1 8 8v240h-464zm328 360h-192v-8h192zm-35.1-24h-121.8l10.666-32h100.468zm171.1-56a8.009 8.009 0 0 1 -8 8h-448a8.009 8.009 0 0 1 -8-8v-24h464z" fill="url(#linear-gradient)"/><path d="m48 376h56a8 8 0 0 0 0-16h-56a8 8 0 0 0 0 16z" fill="url(#linear-gradient-2)"/><path d="m128 376h8a8 8 0 0 0 0-16h-8a8 8 0 0 0 0 16z" fill="url(#linear-gradient-3)"/><g fill="url(#linear-gradient-4)"><path d="m256 120a96 96 0 1 0 96 96 96.108 96.108 0 0 0 -96-96zm0 176a80 80 0 1 1 80-80 80.091 80.091 0 0 1 -80 80z"/><path d="m280 192a8 8 0 0 0 0-16h-16a8 8 0 0 0 -16 0h-16a8 8 0 0 0 -8 8v32a8 8 0 0 0 8 8h40v16h-40a8 8 0 0 0 0 16h16a8 8 0 0 0 16 0h16a8 8 0 0 0 8-8v-32a8 8 0 0 0 -8-8h-40v-16z"/></g></g></svg>