<svg height="512" viewBox="0 0 512 512" width="512" xmlns="http://www.w3.org/2000/svg" xmlns:xlink="http://www.w3.org/1999/xlink"><linearGradient id="linear-gradient" gradientUnits="userSpaceOnUse" x1="-7.176" x2="481.944" y1="459.176" y2="-29.944"><stop offset="0" stop-color="#003f8a"/><stop offset=".518" stop-color="#00d7df"/><stop offset="1" stop-color="#006df0"/></linearGradient><linearGradient id="linear-gradient-2" x1="24.824" x2="513.944" xlink:href="#linear-gradient" y1="491.176" y2="2.056"/><linearGradient id="linear-gradient-3" x1="-9.176" x2="479.944" xlink:href="#linear-gradient" y1="457.176" y2="-31.944"/><linearGradient id="linear-gradient-4" x1="55.516" x2="544.637" xlink:href="#linear-gradient" y1="521.869" y2="32.749"/><linearGradient id="linear-gradient-5" x1="-3.176" x2="485.944" xlink:href="#linear-gradient" y1="463.176" y2="-25.944"/><g id="Creditcard"><path d="m160 320h-72a8 8 0 0 0 0 16h72a8 8 0 0 0 0-16z" fill="url(#linear-gradient)"/><path d="m192 320h-8a8 8 0 0 0 0 16h8a8 8 0 0 0 0-16z" fill="url(#linear-gradient-2)"/><path d="m248 256h-160a8 8 0 0 0 -8 8v32a8 8 0 0 0 8 8h160a8 8 0 0 0 8-8v-32a8 8 0 0 0 -8-8zm-8 32h-144v-16h144z" fill="url(#linear-gradient-3)"/><path d="m448 8h-80a8 8 0 0 0 -8 8v112h-272a40.045 40.045 0 0 0 -40 40v176a40.045 40.045 0 0 0 40 40h272v112a8 8 0 0 0 8 8h80a8 8 0 0 0 8-8v-480a8 8 0 0 0 -8-8zm-384 160a24.028 24.028 0 0 1 24-24h312v32h-336zm0 24h336v32h-336zm0 152v-104h336v128h-312a24.028 24.028 0 0 1 -24-24zm376 144h-64v-104h24v40a8 8 0 0 0 16 0v-336a8 8 0 0 0 -16 0v40h-24v-104h64z" fill="url(#linear-gradient-4)"/><path d="m408 64a8 8 0 0 0 8-8v-8a8 8 0 0 0 -16 0v8a8 8 0 0 0 8 8z" fill="url(#linear-gradient-5)"/></g></svg>