<svg height="512" viewBox="0 0 512 512" width="512" xmlns="http://www.w3.org/2000/svg" xmlns:xlink="http://www.w3.org/1999/xlink"><linearGradient id="linear-gradient" gradientUnits="userSpaceOnUse" x1="-6.353" x2="472.436" y1="466.353" y2="-12.436"><stop offset="0" stop-color="#003f8a"/><stop offset=".518" stop-color="#00d7df"/><stop offset="1" stop-color="#006df0"/></linearGradient><linearGradient id="linear-gradient-2" x1="25.647" x2="504.436" xlink:href="#linear-gradient" y1="498.353" y2="19.564"/><linearGradient id="linear-gradient-3" x1="-24.353" x2="454.436" xlink:href="#linear-gradient" y1="448.353" y2="-30.436"/><linearGradient id="linear-gradient-4" x1="19.647" x2="498.436" xlink:href="#linear-gradient" y1="492.353" y2="13.564"/><g id="Creditcard-2" data-name="Creditcard"><path d="m48 384h72a8 8 0 0 0 0-16h-72a8 8 0 0 0 0 16z" fill="url(#linear-gradient)"/><path d="m152 368h-8a8 8 0 0 0 0 16h8a8 8 0 0 0 0-16z" fill="url(#linear-gradient-2)"/><path d="m48 320h160a8 8 0 0 0 8-8v-32a8 8 0 0 0 -8-8h-160a8 8 0 0 0 -8 8v32a8 8 0 0 0 8 8zm8-32h144v16h-144z" fill="url(#linear-gradient-3)"/><path d="m464 96h-368a40.045 40.045 0 0 0 -40 40v8h-8a40.045 40.045 0 0 0 -40 40v192a40.045 40.045 0 0 0 40 40h368a40.045 40.045 0 0 0 40-40v-8h8a40.045 40.045 0 0 0 40-40v-192a40.045 40.045 0 0 0 -40-40zm-440 88a24.027 24.027 0 0 1 24-24h368a24.027 24.027 0 0 1 24 24v8h-416zm0 24h416v32h-416zm416 168a24.027 24.027 0 0 1 -24 24h-368a24.027 24.027 0 0 1 -24-24v-120h416zm48-48a24.027 24.027 0 0 1 -24 24h-8v-168a40.045 40.045 0 0 0 -40-40h-344v-8a24.027 24.027 0 0 1 24-24h368a24.027 24.027 0 0 1 24 24z" fill="url(#linear-gradient-4)"/></g></svg>