<svg height="512" viewBox="0 0 512 512" width="512" xmlns="http://www.w3.org/2000/svg" xmlns:xlink="http://www.w3.org/1999/xlink"><linearGradient id="linear-gradient" gradientUnits="userSpaceOnUse" x1="-64.36" x2="459.467" y1="477.052" y2="-46.775"><stop offset="0" stop-color="#003f8a"/><stop offset=".518" stop-color="#00d7df"/><stop offset="1" stop-color="#006df0"/></linearGradient><linearGradient id="linear-gradient-2" x1="-114.706" x2="409.121" xlink:href="#linear-gradient" y1="426.706" y2="-97.121"/><linearGradient id="linear-gradient-3" x1="-58.706" x2="465.121" xlink:href="#linear-gradient" y1="482.706" y2="-41.121"/><linearGradient id="linear-gradient-4" x1="-86.706" x2="437.121" xlink:href="#linear-gradient" y1="454.706" y2="-69.121"/><linearGradient id="linear-gradient-5" x1="-30.706" x2="493.121" xlink:href="#linear-gradient" y1="510.706" y2="-13.121"/><linearGradient id="linear-gradient-8" x1="-2.706" x2="521.121" xlink:href="#linear-gradient" y1="538.706" y2="14.879"/><linearGradient id="linear-gradient-11" x1="11.294" x2="535.121" xlink:href="#linear-gradient" y1="552.706" y2="28.879"/><linearGradient id="linear-gradient-12" x1="25.294" x2="549.121" xlink:href="#linear-gradient" y1="566.706" y2="42.879"/><linearGradient id="linear-gradient-13" x1="-140.706" x2="383.121" xlink:href="#linear-gradient" y1="400.706" y2="-123.121"/><linearGradient id="linear-gradient-14" x1="-116.706" x2="407.121" xlink:href="#linear-gradient" y1="424.706" y2="-99.121"/><linearGradient id="linear-gradient-15" x1="41.294" x2="565.121" xlink:href="#linear-gradient" y1="582.706" y2="58.879"/><linearGradient id="linear-gradient-16" x1="31.294" x2="555.121" xlink:href="#linear-gradient" y1="572.706" y2="48.879"/><linearGradient id="linear-gradient-17" x1="57.294" x2="581.121" xlink:href="#linear-gradient" y1="598.706" y2="74.879"/><linearGradient id="linear-gradient-18" x1="63.294" x2="587.121" xlink:href="#linear-gradient" y1="604.706" y2="80.879"/><linearGradient id="linear-gradient-19" x1="-174.706" x2="349.121" xlink:href="#linear-gradient" y1="366.706" y2="-157.121"/><linearGradient id="linear-gradient-20" x1="-170.706" x2="353.121" xlink:href="#linear-gradient" y1="370.706" y2="-153.121"/><g id="Creditcard-3" data-name="Creditcard"><path d="m216 96h-8v-24h56a8 8 0 0 0 8-8v-16a40.045 40.045 0 0 0 -40-40h-128a40.045 40.045 0 0 0 -40 40v48h-8a24.027 24.027 0 0 0 -24 24v360a24.027 24.027 0 0 0 24 24h160a24.027 24.027 0 0 0 24-24v-360a24.027 24.027 0 0 0 -24-24zm40-48v8h-48v-8a24 24 0 0 1 48 0zm-176 0a24.028 24.028 0 0 1 24-24h96.022a39.788 39.788 0 0 0 -8.022 24v48h-112zm-32 72a8.009 8.009 0 0 1 8-8h160a8.009 8.009 0 0 1 8 8v120h-176zm176 360a8.009 8.009 0 0 1 -8 8h-160a8.009 8.009 0 0 1 -8-8v-224h176z" fill="url(#linear-gradient)"/><path d="m208 120h-144a8 8 0 0 0 -8 8v96a8 8 0 0 0 8 8h144a8 8 0 0 0 8-8v-96a8 8 0 0 0 -8-8zm-8 96h-128v-80h128z" fill="url(#linear-gradient-2)"/><path d="m120 312h32a8 8 0 0 0 8-8v-32a8 8 0 0 0 -8-8h-32a8 8 0 0 0 -8 8v32a8 8 0 0 0 8 8zm8-32h16v16h-16z" fill="url(#linear-gradient-3)"/><path d="m64 312h32a8 8 0 0 0 8-8v-32a8 8 0 0 0 -8-8h-32a8 8 0 0 0 -8 8v32a8 8 0 0 0 8 8zm8-32h16v16h-16z" fill="url(#linear-gradient-4)"/><path d="m176 312h32a8 8 0 0 0 8-8v-32a8 8 0 0 0 -8-8h-32a8 8 0 0 0 -8 8v32a8 8 0 0 0 8 8zm8-32h16v16h-16z" fill="url(#linear-gradient-5)"/><path d="m120 368h32a8 8 0 0 0 8-8v-32a8 8 0 0 0 -8-8h-32a8 8 0 0 0 -8 8v32a8 8 0 0 0 8 8zm8-32h16v16h-16z" fill="url(#linear-gradient-5)"/><path d="m64 368h32a8 8 0 0 0 8-8v-32a8 8 0 0 0 -8-8h-32a8 8 0 0 0 -8 8v32a8 8 0 0 0 8 8zm8-32h16v16h-16z" fill="url(#linear-gradient-3)"/><path d="m176 368h32a8 8 0 0 0 8-8v-32a8 8 0 0 0 -8-8h-32a8 8 0 0 0 -8 8v32a8 8 0 0 0 8 8zm8-32h16v16h-16z" fill="url(#linear-gradient-8)"/><path d="m120 424h32a8 8 0 0 0 8-8v-32a8 8 0 0 0 -8-8h-32a8 8 0 0 0 -8 8v32a8 8 0 0 0 8 8zm8-32h16v16h-16z" fill="url(#linear-gradient-8)"/><path d="m64 424h32a8 8 0 0 0 8-8v-32a8 8 0 0 0 -8-8h-32a8 8 0 0 0 -8 8v32a8 8 0 0 0 8 8zm8-32h16v16h-16z" fill="url(#linear-gradient-5)"/><path d="m64 480h88a8 8 0 0 0 8-8v-32a8 8 0 0 0 -8-8h-88a8 8 0 0 0 -8 8v32a8 8 0 0 0 8 8zm8-32h72v16h-72z" fill="url(#linear-gradient-11)"/><path d="m176 424h32a8 8 0 0 0 8-8v-32a8 8 0 0 0 -8-8h-32a8 8 0 0 0 -8 8v32a8 8 0 0 0 8 8zm8-32h16v16h-16z" fill="url(#linear-gradient-12)"/><path d="m88 160h40a8 8 0 0 0 0-16h-40a8 8 0 0 0 0 16z" fill="url(#linear-gradient-13)"/><path d="m152 160h8a8 8 0 0 0 0-16h-8a8 8 0 0 0 0 16z" fill="url(#linear-gradient-14)"/><path d="m456 184h-176a24.028 24.028 0 0 0 -24 24v96a24.028 24.028 0 0 0 24 24h176a24.028 24.028 0 0 0 24-24v-96a24.028 24.028 0 0 0 -24-24zm-176 16h176a8.009 8.009 0 0 1 8 8h-192a8.009 8.009 0 0 1 8-8zm184 32h-192v-8h192zm0 72a8.009 8.009 0 0 1 -8 8h-176a8.009 8.009 0 0 1 -8-8v-56h192z" fill="url(#linear-gradient-15)"/><path d="m296 304h56a8 8 0 0 0 8-8v-32a8 8 0 0 0 -8-8h-56a8 8 0 0 0 -8 8v32a8 8 0 0 0 8 8zm8-32h40v16h-40z" fill="url(#linear-gradient-16)"/><path d="m376 272h32a8 8 0 0 0 0-16h-32a8 8 0 0 0 0 16z" fill="url(#linear-gradient-17)"/><path d="m376 296h8a8 8 0 0 0 0-16h-8a8 8 0 0 0 0 16z" fill="url(#linear-gradient-18)"/><path d="m168 48h-64a8 8 0 0 0 0 16h64a8 8 0 0 0 0-16z" fill="url(#linear-gradient-19)"/><path d="m136 72h-32a8 8 0 0 0 0 16h32a8 8 0 0 0 0-16z" fill="url(#linear-gradient-20)"/></g></svg>