<svg height="512" viewBox="0 0 512 512" width="512" xmlns="http://www.w3.org/2000/svg" xmlns:xlink="http://www.w3.org/1999/xlink"><linearGradient id="linear-gradient" gradientUnits="userSpaceOnUse" x1="-48.353" x2="455.009" y1="504.353" y2=".99"><stop offset="0" stop-color="#003f8a"/><stop offset=".518" stop-color="#00d7df"/><stop offset="1" stop-color="#006df0"/></linearGradient><linearGradient id="linear-gradient-2" x1="-.853" x2="502.509" xlink:href="#linear-gradient" y1="551.853" y2="48.491"/><linearGradient id="linear-gradient-3" x1="-142.353" x2="361.009" xlink:href="#linear-gradient" y1="410.353" y2="-93.009"/><linearGradient id="linear-gradient-4" x1="-116.603" x2="386.759" xlink:href="#linear-gradient" y1="436.103" y2="-67.259"/><linearGradient id="linear-gradient-5" x1="-100.603" x2="402.759" xlink:href="#linear-gradient" y1="452.103" y2="-51.259"/><linearGradient id="linear-gradient-6" x1="-84.603" x2="418.759" xlink:href="#linear-gradient" y1="468.103" y2="-35.259"/><linearGradient id="linear-gradient-7" x1="-100.853" x2="402.509" xlink:href="#linear-gradient" y1="451.853" y2="-51.509"/><linearGradient id="linear-gradient-8" x1="-62.603" x2="440.759" xlink:href="#linear-gradient" y1="490.103" y2="-13.259"/><linearGradient id="linear-gradient-9" x1="47.994" x2="551.357" xlink:href="#linear-gradient" y1="600.7" y2="97.338"/><linearGradient id="linear-gradient-10" x1="107.647" x2="611.009" xlink:href="#linear-gradient" y1="660.353" y2="156.991"/><linearGradient id="linear-gradient-11" x1="77.647" x2="581.009" xlink:href="#linear-gradient" y1="630.353" y2="126.991"/><g id="Document"><path d="m344 8h-288a8 8 0 0 0 -8 8v480a8 8 0 0 0 8 8h288a8 8 0 0 0 8-8v-480a8 8 0 0 0 -8-8zm-8 480h-272v-464h272z" fill="url(#linear-gradient)"/><path d="m127 472a47.967 47.967 0 0 0 46.7-59.055l47.364-38.753a8 8 0 0 0 -10.13-12.384l-43.834 35.861a47.99 47.99 0 1 0 -40.1 74.331zm0-80a32.009 32.009 0 0 1 27.625 15.879l-25.054 20.5-12.043-17a8 8 0 0 0 -13.056 9.248l17 24a8 8 0 0 0 11.593 1.568l25.91-21.2a32 32 0 1 1 -31.975-32.995z" fill="url(#linear-gradient-2)"/><path d="m128 96h144a8 8 0 0 0 8-8v-40a8 8 0 0 0 -8-8h-144a8 8 0 0 0 -8 8v40a8 8 0 0 0 8 8zm8-40h128v24h-128z" fill="url(#linear-gradient-3)"/><path d="m87 128h225a8 8 0 0 0 0-16h-225a8 8 0 0 0 0 16z" fill="url(#linear-gradient-4)"/><path d="m87 160h225a8 8 0 0 0 0-16h-225a8 8 0 0 0 0 16z" fill="url(#linear-gradient-5)"/><path d="m87 192h225a8 8 0 0 0 0-16h-225a8 8 0 0 0 0 16z" fill="url(#linear-gradient-6)"/><path d="m87 224h96a8 8 0 0 0 0-16h-96a8 8 0 0 0 0 16z" fill="url(#linear-gradient-7)"/><path d="m208 208a8 8 0 0 0 0 16h7a8 8 0 0 0 0-16z" fill="url(#linear-gradient-8)"/><path d="m456 40a8 8 0 0 0 -8 8v32h-16v-48a24.027 24.027 0 0 0 -24-24h-16a24.027 24.027 0 0 0 -24 24v417a8 8 0 0 0 .875 3.638l24 47a8 8 0 0 0 14.25 0l24-47a8 8 0 0 0 .875-3.638v-353h16v80a8 8 0 0 0 16 0v-128a8 8 0 0 0 -8-8zm-72 104h32v280h-32zm0-112a8.009 8.009 0 0 1 8-8h16a8.009 8.009 0 0 1 8 8v96h-32zm32 415.076-16 31.333-16-31.333v-7.076h32z" fill="url(#linear-gradient-9)"/><path d="m400 328a8 8 0 0 0 -8 8v64a8 8 0 0 0 16 0v-64a8 8 0 0 0 -8-8z" fill="url(#linear-gradient-10)"/><path d="m400 296a8 8 0 0 0 -8 8v8a8 8 0 0 0 16 0v-8a8 8 0 0 0 -8-8z" fill="url(#linear-gradient-11)"/></g></svg>