<svg height="512" viewBox="0 0 512 512" width="512" xmlns="http://www.w3.org/2000/svg" xmlns:xlink="http://www.w3.org/1999/xlink"><linearGradient id="linear-gradient" gradientUnits="userSpaceOnUse" x1="9.059" x2="538.601" y1="502.941" y2="-26.601"><stop offset="0" stop-color="#003f8a"/><stop offset=".518" stop-color="#00d7df"/><stop offset="1" stop-color="#006df0"/></linearGradient><linearGradient id="linear-gradient-3" x1="-98.941" x2="430.601" xlink:href="#linear-gradient" y1="394.941" y2="-134.601"/><linearGradient id="linear-gradient-4" x1="-66.941" x2="462.601" xlink:href="#linear-gradient" y1="426.941" y2="-102.601"/><linearGradient id="linear-gradient-5" x1="-62.941" x2="466.601" xlink:href="#linear-gradient" y1="430.941" y2="-98.601"/><linearGradient id="linear-gradient-7" x1="-44.941" x2="484.601" xlink:href="#linear-gradient" y1="448.941" y2="-80.601"/><linearGradient id="linear-gradient-8" x1="61.059" x2="590.601" xlink:href="#linear-gradient" y1="554.941" y2="25.399"/><linearGradient id="linear-gradient-9" x1="73.059" x2="602.601" xlink:href="#linear-gradient" y1="566.941" y2="37.399"/><linearGradient id="linear-gradient-10" x1="69.059" x2="598.601" xlink:href="#linear-gradient" y1="562.941" y2="33.399"/><linearGradient id="linear-gradient-11" x1="119.059" x2="648.601" xlink:href="#linear-gradient" y1="612.941" y2="83.399"/><g id="Document-2" data-name="Document"><path d="m432 8h-304a8 8 0 0 0 -8 8v40h-40a8 8 0 0 0 -8 8v432a8 8 0 0 0 8 8h304a8 8 0 0 0 8-8v-40h40a8 8 0 0 0 8-8v-432a8 8 0 0 0 -8-8zm-56 480h-288v-416h216v40a8 8 0 0 0 12.438 6.656l19.562-13.041 19.562 13.041a8 8 0 0 0 12.438-6.656v-40h8zm-56-416h32v25.052l-11.562-7.708a8 8 0 0 0 -8.876 0l-11.562 7.708zm104 368h-32v-376a8 8 0 0 0 -8-8h-248v-32h288z" fill="url(#linear-gradient)"/><path d="m336 200h-208a8 8 0 0 0 -8 8v144a8 8 0 0 0 8 8h208a8 8 0 0 0 8-8v-144a8 8 0 0 0 -8-8zm-8 16v16h-136v-16zm-192 0h40v16h-40zm0 128v-96h40v96zm192 0h-136v-96h136z" fill="url(#linear-gradient)"/><path d="m128 184h32a8 8 0 0 0 8-8v-48a8 8 0 0 0 -8-8h-32a8 8 0 0 0 -8 8v48a8 8 0 0 0 8 8zm8-48h16v32h-16z" fill="url(#linear-gradient-3)"/><path d="m184 136h96a8 8 0 0 0 0-16h-96a8 8 0 0 0 0 16z" fill="url(#linear-gradient-4)"/><path d="m184 160h64a8 8 0 0 0 0-16h-64a8 8 0 0 0 0 16z" fill="url(#linear-gradient-5)"/><path d="m184 184h16a8 8 0 0 0 0-16h-16a8 8 0 0 0 0 16z" fill="url(#linear-gradient-5)"/><path d="m224 168a8 8 0 0 0 0 16h8a8 8 0 0 0 0-16z" fill="url(#linear-gradient-7)"/><path d="m336 376h-208a8 8 0 0 0 0 16h208a8 8 0 0 0 0-16z" fill="url(#linear-gradient-8)"/><path d="m336 400h-208a8 8 0 0 0 0 16h208a8 8 0 0 0 0-16z" fill="url(#linear-gradient-9)"/><path d="m272 424h-144a8 8 0 0 0 0 16h144a8 8 0 0 0 0-16z" fill="url(#linear-gradient-10)"/><path d="m304 424h-8a8 8 0 0 0 0 16h8a8 8 0 0 0 0-16z" fill="url(#linear-gradient-11)"/></g></svg>