<svg height="512" viewBox="0 0 512 512" width="512" xmlns="http://www.w3.org/2000/svg" xmlns:xlink="http://www.w3.org/1999/xlink"><linearGradient id="linear-gradient" gradientUnits="userSpaceOnUse" x1="12" x2="542.587" y1="524" y2="-6.587"><stop offset="0" stop-color="#003f8a"/><stop offset=".518" stop-color="#00d7df"/><stop offset="1" stop-color="#006df0"/></linearGradient><linearGradient id="linear-gradient-3" x1="-14" x2="516.587" xlink:href="#linear-gradient" y1="498" y2="-32.587"/><linearGradient id="linear-gradient-4" x1="14" x2="544.587" xlink:href="#linear-gradient" y1="526" y2="-4.587"/><linearGradient id="linear-gradient-5" x1="8" x2="538.587" xlink:href="#linear-gradient" y1="520" y2="-10.587"/><g id="Folder"><path d="m232 304a8 8 0 0 0 0 16h16a8 8 0 0 0 16 0h16a8 8 0 0 0 8-8v-32a8 8 0 0 0 -8-8h-40v-16h40a8 8 0 0 0 0-16h-16a8 8 0 0 0 -16 0h-16a8 8 0 0 0 -8 8v32a8 8 0 0 0 8 8h40v16z" fill="url(#linear-gradient)"/><path d="m256 352a72 72 0 1 0 -72-72 72.081 72.081 0 0 0 72 72zm0-128a56 56 0 1 1 -56 56 56.063 56.063 0 0 1 56-56z" fill="url(#linear-gradient)"/><path d="m48 416h56a8 8 0 0 0 0-16h-56a8 8 0 0 0 0 16z" fill="url(#linear-gradient-3)"/><path d="m128 416h8a8 8 0 0 0 0-16h-8a8 8 0 0 0 0 16z" fill="url(#linear-gradient-4)"/><path d="m496 128h-24v-24a8 8 0 0 0 -8-8h-204.687l-29.656-29.657a8 8 0 0 0 -5.657-2.343h-176a8 8 0 0 0 -8 8v56h-24a8 8 0 0 0 -8 8v304a8 8 0 0 0 8 8h480a8 8 0 0 0 8-8v-304a8 8 0 0 0 -8-8zm-440-48h164.687l29.656 29.657a8 8 0 0 0 5.657 2.343h200v16h-400zm432 352h-464v-288h464z" fill="url(#linear-gradient-5)"/></g></svg>