<svg height="512" viewBox="0 0 512 512" width="512" xmlns="http://www.w3.org/2000/svg" xmlns:xlink="http://www.w3.org/1999/xlink"><linearGradient id="linear-gradient" gradientUnits="userSpaceOnUse" x1="-50.118" x2="361.752" y1="426.118" y2="14.248"><stop offset="0" stop-color="#003f8a"/><stop offset=".518" stop-color="#00d7df"/><stop offset="1" stop-color="#006df0"/></linearGradient><linearGradient id="linear-gradient-2" x1="-50.118" x2="361.752" xlink:href="#linear-gradient" y1="426.118" y2="14.248"/><linearGradient id="linear-gradient-3" x1="-146.368" x2="265.502" xlink:href="#linear-gradient" y1="329.868" y2="-82.002"/><linearGradient id="linear-gradient-4" x1="-124.118" x2="287.752" xlink:href="#linear-gradient" y1="352.118" y2="-59.752"/><linearGradient id="linear-gradient-5" x1="192.284" x2="192.284" xlink:href="#linear-gradient" y1="271.716" y2="271.716"/><linearGradient id="linear-gradient-6" x1="21.882" x2="433.752" xlink:href="#linear-gradient" y1="498.118" y2="86.248"/><g id="Growth"><path d="m280 96a8 8 0 0 0 0-16h-16a8 8 0 0 0 -16 0h-16a8 8 0 0 0 -8 8v32a8 8 0 0 0 8 8h40v16h-40a8 8 0 0 0 0 16h16a8 8 0 0 0 16 0h16a8 8 0 0 0 8-8v-32a8 8 0 0 0 -8-8h-40v-16z" fill="url(#linear-gradient)"/><path d="m328 120a72 72 0 1 0 -72 72 72.081 72.081 0 0 0 72-72zm-72 56a56 56 0 1 1 56-56 56.063 56.063 0 0 1 -56 56z" fill="url(#linear-gradient-2)"/><path d="m160 32h-33a8 8 0 0 0 0 16h33a8 8 0 0 0 0-16z" fill="url(#linear-gradient-3)"/><path d="m192 48a8 8 0 0 0 0-16h-8a8 8 0 0 0 0 16z" fill="url(#linear-gradient-4)"/><path d="m192.283 271.716h.001v.001z" fill="url(#linear-gradient-5)"/><path d="m480 464h-104v-16a8 8 0 0 0 -8-8h-40v-16a8 8 0 0 0 -8-8h-40v-68.582l26.2-21.837c5.965 4.9 13.514 7.283 21.739 7.283 14.245 0 30.5-7.128 43.947-20.58 21.512-21.513 13.843-62.053 13.506-63.767a8 8 0 0 0 -6.307-6.308c-1.714-.337-42.254-8.006-63.769 13.507-17.727 17.728-24.454 40.3-18.38 56.758l-16.936 14.118v-94.592h184a8 8 0 0 0 8-8v-208a8 8 0 0 0 -8-8h-416a8 8 0 0 0 -8 8v208a8 8 0 0 0 8 8h184v124.686l-23.508-23.509c9.485-16.634 3.276-41.977-16.208-61.461-21.515-21.516-62.054-13.844-63.767-13.507a8 8 0 0 0 -6.308 6.308c-.337 1.714-8.007 42.254 13.507 63.766 13.453 13.454 29.7 20.581 43.946 20.581a35.092 35.092 0 0 0 17.518-4.364l34.82 34.814v36.686h-88a8 8 0 0 0 -8 8v16h-32a8 8 0 0 0 -8 8v16h-56a8 8 0 0 0 -8 8v24a8 8 0 0 0 8 8h440a8 8 0 0 0 8-8v-24a8 8 0 0 0 -8-8zm-153.365-196.97c7.79-7.791 20.427-9.922 29.658-10.337 1.354-.06 2.677-.088 3.957-.088a99.128 99.128 0 0 1 10.258.544c1.272 11.914.96 32.928-9.933 43.822-13.539 13.54-31.275 19.154-41.575 13.948l29.729-24.773a8 8 0 0 0 -10.243-12.292l-27.696 23.079c-.49-10.16 5.257-23.316 15.845-33.903zm-179.606 49.94c-7.79-7.79-9.921-20.428-10.336-29.658a96.649 96.649 0 0 1 .452-14.167 96.784 96.784 0 0 1 14.167-.452c9.23.415 21.868 2.546 29.658 10.336 12.043 12.044 17.819 27.413 15.285 37.911l-26.6-26.6a8 8 0 0 0 -11.314 11.314l26.6 26.6c-10.5 2.535-25.868-3.241-37.912-15.284zm212.971 147.03h-72v-8h72zm-160 0v-8h72v8zm112-24h-72v-8h72zm-200.518-224a64.1 64.1 0 0 0 -55.482-55.482v-81.036a64.107 64.107 0 0 0 55.482-55.482h289.036a64.107 64.107 0 0 0 55.482 55.482v81.036a64.1 64.1 0 0 0 -55.482 55.482zm305.2 0a48.108 48.108 0 0 1 39.318-39.321v39.321zm39.318-152.679a48.109 48.109 0 0 1 -39.321-39.321h39.321zm-360.679-39.321a48.109 48.109 0 0 1 -39.321 39.321v-39.321zm-39.321 152.679a48.108 48.108 0 0 1 39.321 39.321h-39.321zm192 55.321h16v184h-16zm-96 200h72v8h-72zm-40 24h72v8h-72zm-64 24h72v8h-72zm88 0h72v8h-72zm88 0h72v8h-72zm88 0h72v8h-72zm160 8h-72v-8h72z" fill="url(#linear-gradient-6)"/></g></svg>