<svg height="512" viewBox="0 0 512 512" width="512" xmlns="http://www.w3.org/2000/svg" xmlns:xlink="http://www.w3.org/1999/xlink"><linearGradient id="linear-gradient" gradientUnits="userSpaceOnUse" x1="81.647" x2="593.446" y1="558.353" y2="46.554"><stop offset="0" stop-color="#003f8a"/><stop offset=".518" stop-color="#00d7df"/><stop offset="1" stop-color="#006df0"/></linearGradient><linearGradient id="linear-gradient-2" x1="-72.353" x2="439.445" xlink:href="#linear-gradient" y1="404.353" y2="-107.446"/><linearGradient id="linear-gradient-3" x1="-30.353" x2="481.446" xlink:href="#linear-gradient" y1="446.353" y2="-65.446"/><linearGradient id="linear-gradient-4" x1="-4.353" x2="507.446" xlink:href="#linear-gradient" y1="472.353" y2="-39.446"/><linearGradient id="linear-gradient-5" x1="13.647" x2="525.446" xlink:href="#linear-gradient" y1="490.353" y2="-21.446"/><linearGradient id="linear-gradient-6" x1="-144.353" x2="367.445" xlink:href="#linear-gradient" y1="332.353" y2="-179.446"/><linearGradient id="linear-gradient-7" x1="-102.353" x2="409.446" xlink:href="#linear-gradient" y1="374.353" y2="-137.446"/><linearGradient id="linear-gradient-8" x1="-76.353" x2="435.446" xlink:href="#linear-gradient" y1="400.353" y2="-111.446"/><linearGradient id="linear-gradient-9" x1="-58.353" x2="453.446" xlink:href="#linear-gradient" y1="418.353" y2="-93.446"/><linearGradient id="linear-gradient-10" x1="-.353" x2="511.445" xlink:href="#linear-gradient" y1="476.353" y2="-35.446"/><linearGradient id="linear-gradient-11" x1="41.647" x2="553.446" xlink:href="#linear-gradient" y1="518.353" y2="6.554"/><linearGradient id="linear-gradient-12" x1="67.647" x2="579.446" xlink:href="#linear-gradient" y1="544.353" y2="32.554"/><linearGradient id="linear-gradient-13" x1="85.647" x2="597.446" xlink:href="#linear-gradient" y1="562.353" y2="50.554"/><g id="Growth-2" data-name="Growth"><path d="m256 264a120 120 0 1 0 120 120 120.136 120.136 0 0 0 -120-120zm0 224a104 104 0 1 1 104-104 104.118 104.118 0 0 1 -104 104z" fill="url(#linear-gradient)"/><path d="m208 88h24v32a8 8 0 0 0 8 8h32a8 8 0 0 0 8-8v-32h24a8 8 0 0 0 6.4-12.8l-48-64a8 8 0 0 0 -12.8 0l-48 64a8 8 0 0 0 6.4 12.8zm48-58.667 32 42.667h-16a8 8 0 0 0 -8 8v32h-16v-32a8 8 0 0 0 -8-8h-16z" fill="url(#linear-gradient-2)"/><path d="m280 144a8 8 0 0 0 -8-8h-32a8 8 0 0 0 -8 8v32a8 8 0 0 0 8 8h32a8 8 0 0 0 8-8zm-16 24h-16v-16h16z" fill="url(#linear-gradient-3)"/><path d="m280 200a8 8 0 0 0 -8-8h-32a8 8 0 0 0 -8 8v24a8 8 0 0 0 8 8h32a8 8 0 0 0 8-8zm-16 16h-16v-8h16z" fill="url(#linear-gradient-4)"/><path d="m272 240h-32a8 8 0 0 0 0 16h32a8 8 0 0 0 0-16z" fill="url(#linear-gradient-5)"/><path d="m88 120a8 8 0 0 0 8 8h32a8 8 0 0 0 8-8v-32h24a8 8 0 0 0 6.4-12.8l-48-64a8 8 0 0 0 -12.8 0l-48 64a8 8 0 0 0 6.4 12.8h24zm-8-48 32-42.667 32 42.667h-16a8 8 0 0 0 -8 8v32h-16v-32a8 8 0 0 0 -8-8z" fill="url(#linear-gradient-6)"/><path d="m136 144a8 8 0 0 0 -8-8h-32a8 8 0 0 0 -8 8v32a8 8 0 0 0 8 8h32a8 8 0 0 0 8-8zm-16 24h-16v-16h16z" fill="url(#linear-gradient-7)"/><path d="m128 192h-32a8 8 0 0 0 -8 8v24a8 8 0 0 0 8 8h32a8 8 0 0 0 8-8v-24a8 8 0 0 0 -8-8zm-8 24h-16v-8h16z" fill="url(#linear-gradient-8)"/><path d="m128 240h-32a8 8 0 0 0 0 16h32a8 8 0 0 0 0-16z" fill="url(#linear-gradient-9)"/><path d="m454.4 75.2-48-64a8 8 0 0 0 -12.8 0l-48 64a8 8 0 0 0 6.4 12.8h24v32a8 8 0 0 0 8 8h32a8 8 0 0 0 8-8v-32h24a8 8 0 0 0 6.4-12.8zm-38.4-3.2a8 8 0 0 0 -8 8v32h-16v-32a8 8 0 0 0 -8-8h-16l32-42.667 32 42.667z" fill="url(#linear-gradient-10)"/><path d="m416 136h-32a8 8 0 0 0 -8 8v32a8 8 0 0 0 8 8h32a8 8 0 0 0 8-8v-32a8 8 0 0 0 -8-8zm-8 32h-16v-16h16z" fill="url(#linear-gradient-11)"/><path d="m416 192h-32a8 8 0 0 0 -8 8v24a8 8 0 0 0 8 8h32a8 8 0 0 0 8-8v-24a8 8 0 0 0 -8-8zm-8 24h-16v-8h16z" fill="url(#linear-gradient-12)"/><path d="m416 240h-32a8 8 0 0 0 0 16h32a8 8 0 0 0 0-16z" fill="url(#linear-gradient-13)"/><g fill="url(#linear-gradient)"><path d="m280 360a8 8 0 0 0 0-16h-16a8 8 0 0 0 -16 0h-16a8 8 0 0 0 -8 8v32a8 8 0 0 0 8 8h40v16h-40a8 8 0 0 0 0 16h16a8 8 0 0 0 16 0h16a8 8 0 0 0 8-8v-32a8 8 0 0 0 -8-8h-40v-16z"/><path d="m256 296a88 88 0 1 0 88 88 88.1 88.1 0 0 0 -88-88zm0 160a72 72 0 1 1 72-72 72.081 72.081 0 0 1 -72 72z"/></g></g></svg>