<svg height="512" viewBox="0 0 512 512" width="512" xmlns="http://www.w3.org/2000/svg" xmlns:xlink="http://www.w3.org/1999/xlink"><linearGradient id="linear-gradient" gradientUnits="userSpaceOnUse" x1="43.855" x2="567.434" y1="506.914" y2="-16.665"><stop offset="0" stop-color="#003f8a"/><stop offset=".518" stop-color="#00d7df"/><stop offset="1" stop-color="#006df0"/></linearGradient><linearGradient id="linear-gradient-2" x1="-63.529" x2="460.05" xlink:href="#linear-gradient" y1="399.529" y2="-124.05"/><linearGradient id="linear-gradient-3" x1="60.971" x2="584.55" xlink:href="#linear-gradient" y1="524.029" y2=".45"/><linearGradient id="linear-gradient-4" x1="78.971" x2="602.55" xlink:href="#linear-gradient" y1="542.029" y2="18.45"/><linearGradient id="linear-gradient-5" x1="88.971" x2="612.55" xlink:href="#linear-gradient" y1="552.029" y2="28.45"/><linearGradient id="linear-gradient-6" x1="102.471" x2="626.05" xlink:href="#linear-gradient" y1="565.529" y2="41.95"/><linearGradient id="linear-gradient-7" x1="126.471" x2="650.05" xlink:href="#linear-gradient" y1="589.529" y2="65.95"/><g id="Growth-3" data-name="Growth"><path d="m287.208 249.292c5.666 6.287 14.046 10.33 24.33 11.6a56.224 56.224 0 0 0 6.865.413 72.746 72.746 0 0 0 32.239-8.066c27.187-13.656 32.654-54.551 32.873-56.286a8 8 0 0 0 -4-7.97c-1.522-.86-37.593-20.886-64.78-7.23-24.622 12.37-38.486 34.476-34.71 53.249l-16.025 8.043v-91.5a72 72 0 1 0 -16 0v51.278l-15.583-7.823c1.662-8.3-.1-17.437-5.222-26.442-6.16-10.828-16.631-20.347-29.484-26.8-27.187-13.657-63.258 6.371-64.78 7.23a8 8 0 0 0 -4 7.97c.219 1.735 5.686 42.63 32.873 56.286a72.75 72.75 0 0 0 32.24 8.066 56.236 56.236 0 0 0 6.865-.413c10.283-1.266 18.664-5.309 24.33-11.6l22.761 11.432v75.271h-96a8 8 0 0 0 0 16h36.47a72.182 72.182 0 0 0 -4.47 25v16a71.58 71.58 0 0 0 12.167 40h-12.167a40.045 40.045 0 0 0 -40 40v63a8 8 0 0 0 8 8h208a8 8 0 0 0 8-8v-63a40.045 40.045 0 0 0 -40-40h-12.167a71.58 71.58 0 0 0 12.167-40v-16a72.182 72.182 0 0 0 -4.47-25h36.47a8 8 0 0 0 0-16h-96v-35.05zm34.7-53.246c9.845-4.942 22.511-2.992 31.4-.485a96.59 96.59 0 0 1 13.351 4.9c-2.538 11.711-9.442 31.56-23.207 38.475-10.061 5.055-20.7 7.211-29.968 6.07a27.689 27.689 0 0 1 -10.794-3.5l33.58-16.869a8 8 0 1 0 -7.183-14.3l-33.612 16.885c.902-10.755 11.217-23.53 26.438-31.176zm-122.958 8.962c-9.267 1.139-19.907-1.017-29.968-6.07-9.844-4.945-15.84-16.272-19.137-24.9a96.63 96.63 0 0 1 -4.027-13.591 96.557 96.557 0 0 1 13.307-4.883c8.894-2.51 21.561-4.459 31.4.485 10.061 5.055 18.144 12.307 22.76 20.419a27.708 27.708 0 0 1 3.638 10.748l-33.58-16.869a8 8 0 1 0 -7.183 14.3l33.581 16.869a27.7 27.7 0 0 1 -10.791 3.492zm153.05 227.992v55h-192v-55a24.028 24.028 0 0 1 24-24h26.815a71.8 71.8 0 0 0 90.37 0h26.815a24.028 24.028 0 0 1 24 24zm-45.877-121a56 56 0 0 1 5.877 25v16a56 56 0 0 1 -112 0v-16a56 56 0 0 1 5.877-25zm-106.123-232a56 56 0 1 1 56 56 56.063 56.063 0 0 1 -56-56z" fill="url(#linear-gradient)"/><path d="m264 120h16a8 8 0 0 0 8-8v-32a8 8 0 0 0 -8-8h-40v-16h40a8 8 0 0 0 0-16h-16a8 8 0 0 0 -16 0h-16a8 8 0 0 0 -8 8v32a8 8 0 0 0 8 8h40v16h-40a8 8 0 0 0 0 16h16a8 8 0 0 0 16 0z" fill="url(#linear-gradient-2)"/><path d="m224 345h16v16a8 8 0 0 0 16 0v-24a8 8 0 0 0 -8-8h-24a8 8 0 0 0 0 16z" fill="url(#linear-gradient-3)"/><path d="m280 345h8a8 8 0 0 0 0-16h-8a8 8 0 0 0 0 16z" fill="url(#linear-gradient-4)"/><path d="m232 385a8 8 0 0 0 8 8h32a8 8 0 0 0 0-16h-32a8 8 0 0 0 -8 8z" fill="url(#linear-gradient-5)"/><path d="m216 464h-40a8 8 0 0 0 0 16h40a8 8 0 0 0 0-16z" fill="url(#linear-gradient-6)"/><path d="m248 464h-8a8 8 0 0 0 0 16h8a8 8 0 0 0 0-16z" fill="url(#linear-gradient-7)"/></g></svg>