<svg height="512" viewBox="0 0 512 512" width="512" xmlns="http://www.w3.org/2000/svg" xmlns:xlink="http://www.w3.org/1999/xlink"><linearGradient id="linear-gradient" gradientUnits="userSpaceOnUse" x1="3.529" x2="459.876" y1="444.471" y2="-11.876"><stop offset="0" stop-color="#003f8a"/><stop offset=".518" stop-color="#00d7df"/><stop offset="1" stop-color="#006df0"/></linearGradient><linearGradient id="linear-gradient-3" x1="39.529" x2="495.876" xlink:href="#linear-gradient" y1="480.471" y2="24.124"/><linearGradient id="linear-gradient-4" x1="61.529" x2="517.876" xlink:href="#linear-gradient" y1="502.471" y2="46.124"/><linearGradient id="linear-gradient-5" x1="79.529" x2="535.876" xlink:href="#linear-gradient" y1="520.471" y2="64.124"/><linearGradient id="linear-gradient-6" x1="91.529" x2="547.876" xlink:href="#linear-gradient" y1="532.471" y2="76.124"/><linearGradient id="linear-gradient-8" x1="137.529" x2="593.876" xlink:href="#linear-gradient" y1="578.471" y2="122.124"/><g id="Invoice"><path d="m232 216a8 8 0 0 0 0 16h16a8 8 0 0 0 16 0h16a8 8 0 0 0 8-8v-32a8 8 0 0 0 -8-8h-40v-16h40a8 8 0 0 0 0-16h-16a8 8 0 0 0 -16 0h-16a8 8 0 0 0 -8 8v32a8 8 0 0 0 8 8h40v16z" fill="url(#linear-gradient)"/><path d="m256 264a72 72 0 1 0 -72-72 72.081 72.081 0 0 0 72 72zm0-128a56 56 0 1 1 -56 56 56.064 56.064 0 0 1 56-56z" fill="url(#linear-gradient)"/><path d="m424 24h-32v-8a8 8 0 0 0 -16 0v8h-48v-8a8 8 0 0 0 -16 0v8h-48v-8a8 8 0 0 0 -16 0v8h-48v-8a8 8 0 0 0 -16 0v8h-48v-8a8 8 0 0 0 -16 0v8h-32a8 8 0 0 0 -8 8v464a8 8 0 0 0 8 8h336a8 8 0 0 0 8-8v-464a8 8 0 0 0 -8-8zm-8 464h-320v-448h24v9.376a24 24 0 1 0 16 0v-9.376h48v9.376a24 24 0 1 0 16 0v-9.376h48v9.376a24 24 0 1 0 16 0v-9.376h48v9.376a24 24 0 1 0 16 0v-9.376h48v9.376a24 24 0 1 0 16 0v-9.376h24zm-288-424a8 8 0 1 1 -8 8 8.009 8.009 0 0 1 8-8zm64 0a8 8 0 1 1 -8 8 8.009 8.009 0 0 1 8-8zm64 0a8 8 0 1 1 -8 8 8.009 8.009 0 0 1 8-8zm64 0a8 8 0 1 1 -8 8 8.009 8.009 0 0 1 8-8zm64 0a8 8 0 1 1 -8 8 8.009 8.009 0 0 1 8-8z" fill="url(#linear-gradient-3)"/><path d="m392 288h-272a8 8 0 0 0 -8 8v24a8 8 0 0 0 8 8h272a8 8 0 0 0 8-8v-24a8 8 0 0 0 -8-8zm-8 24h-256v-8h256z" fill="url(#linear-gradient-4)"/><path d="m392 336h-272a8 8 0 0 0 0 16h272a8 8 0 0 0 0-16z" fill="url(#linear-gradient-5)"/><path d="m392 360h-272a8 8 0 0 0 0 16h272a8 8 0 0 0 0-16z" fill="url(#linear-gradient-6)"/><path d="m296 384h-176a8 8 0 0 0 0 16h176a8 8 0 0 0 0-16z" fill="url(#linear-gradient-5)"/><path d="m328 384h-8a8 8 0 0 0 0 16h8a8 8 0 0 0 0-16z" fill="url(#linear-gradient-8)"/></g></svg>