<svg height="512" viewBox="0 0 512 512" width="512" xmlns="http://www.w3.org/2000/svg" xmlns:xlink="http://www.w3.org/1999/xlink"><linearGradient id="linear-gradient" gradientUnits="userSpaceOnUse" x1="37.176" x2="513.647" y1="490.823" y2="14.353"><stop offset="0" stop-color="#003f8a"/><stop offset=".518" stop-color="#00d7df"/><stop offset="1" stop-color="#006df0"/></linearGradient><linearGradient id="linear-gradient-2" x1="17.176" x2="493.647" xlink:href="#linear-gradient" y1="470.823" y2="-5.647"/><linearGradient id="linear-gradient-3" x1="7.176" x2="483.647" xlink:href="#linear-gradient" y1="460.823" y2="-15.647"/><linearGradient id="linear-gradient-4" x1="31.176" x2="507.647" xlink:href="#linear-gradient" y1="484.824" y2="8.353"/><linearGradient id="linear-gradient-5" x1="17.176" x2="493.647" xlink:href="#linear-gradient" y1="470.824" y2="-5.647"/><g id="Laptop"><path d="m496 352h-24v-216a40.045 40.045 0 0 0 -40-40h-352a40.045 40.045 0 0 0 -40 40v216h-24a8 8 0 0 0 -8 8v16a40.045 40.045 0 0 0 40 40h416a40.045 40.045 0 0 0 40-40v-16a8 8 0 0 0 -8-8zm-440-216a24.027 24.027 0 0 1 24-24h352a24.027 24.027 0 0 1 24 24v216h-400zm244.9 232-2.666 8h-84.468l-2.666-8zm187.1 8a24.027 24.027 0 0 1 -24 24h-416a24.027 24.027 0 0 1 -24-24v-8h170.234l6.176 18.53a8 8 0 0 0 7.59 5.47h96a8 8 0 0 0 7.59-5.47l6.176-18.53h170.234z" fill="url(#linear-gradient)"/><path d="m448 336v-208a8 8 0 0 0 -8-8h-368a8 8 0 0 0 -8 8v208a8 8 0 0 0 8 8h368a8 8 0 0 0 8-8zm-16-8h-352v-192h352z" fill="url(#linear-gradient-2)"/><path d="m104 376h-40a8 8 0 0 0 0 16h40a8 8 0 0 0 0-16z" fill="url(#linear-gradient-3)"/><path d="m136 376h-8a8 8 0 0 0 0 16h8a8 8 0 0 0 0-16z" fill="url(#linear-gradient-4)"/><g fill="url(#linear-gradient-5)"><path d="m256 320a88 88 0 1 0 -88-88 88.1 88.1 0 0 0 88 88zm0-160a72 72 0 1 1 -72 72 72.081 72.081 0 0 1 72-72z"/><path d="m232 256a8 8 0 0 0 0 16h16a8 8 0 0 0 16 0h16a8 8 0 0 0 8-8v-32a8 8 0 0 0 -8-8h-40v-16h40a8 8 0 0 0 0-16h-16a8 8 0 0 0 -16 0h-16a8 8 0 0 0 -8 8v32a8 8 0 0 0 8 8h40v16z"/></g></g></svg>