<svg height="512" viewBox="0 0 512 512" width="512" xmlns="http://www.w3.org/2000/svg" xmlns:xlink="http://www.w3.org/1999/xlink"><linearGradient id="linear-gradient" gradientUnits="userSpaceOnUse" x1="34.588" x2="490.708" y1="477.412" y2="21.292"><stop offset="0" stop-color="#003f8a"/><stop offset=".518" stop-color="#00d7df"/><stop offset="1" stop-color="#006df0"/></linearGradient><linearGradient id="linear-gradient-4" x1="10.338" x2="466.458" xlink:href="#linear-gradient" y1="453.162" y2="-2.958"/><linearGradient id="linear-gradient-5" x1="32.588" x2="488.708" xlink:href="#linear-gradient" y1="475.412" y2="19.292"/><g id="Money"><g fill="url(#linear-gradient)"><path d="m216 296a8 8 0 0 0 0 16h16a8 8 0 0 0 16 0h16a8 8 0 0 0 8-8v-32a8 8 0 0 0 -8-8h-40v-16h40a8 8 0 0 0 0-16h-16a8 8 0 0 0 -16 0h-16a8 8 0 0 0 -8 8v32a8 8 0 0 0 8 8h40v16z"/><path d="m496 128h-448a8 8 0 0 0 -8 8v24h-24a8 8 0 0 0 -8 8v208a8 8 0 0 0 8 8h448a8 8 0 0 0 8-8v-24h24a8 8 0 0 0 8-8v-208a8 8 0 0 0 -8-8zm-432.679 48a48.109 48.109 0 0 1 -39.321 39.321v-39.321zm337.2 0a64.107 64.107 0 0 0 55.479 55.482v81.036a64.107 64.107 0 0 0 -55.482 55.482h-321.036a64.107 64.107 0 0 0 -55.482-55.482v-81.036a64.107 64.107 0 0 0 55.482-55.482zm55.479 39.321a48.109 48.109 0 0 1 -39.321-39.321h39.321zm-432 113.358a48.109 48.109 0 0 1 39.321 39.321h-39.321zm392.679 39.321a48.109 48.109 0 0 1 39.321-39.321v39.321zm71.321-32h-16v-168a8 8 0 0 0 -8-8h-408v-16h432z"/><path d="m240 344a72 72 0 1 0 -72-72 72.081 72.081 0 0 0 72 72zm0-128a56 56 0 1 1 -56 56 56.063 56.063 0 0 1 56-56z"/></g><path d="m95 360h33a8 8 0 0 0 0-16h-33a8 8 0 0 0 0 16z" fill="url(#linear-gradient-4)"/><path d="m152 360h8a8 8 0 0 0 0-16h-8a8 8 0 0 0 0 16z" fill="url(#linear-gradient-5)"/></g></svg>