<svg height="512" viewBox="0 0 512 512" width="512" xmlns="http://www.w3.org/2000/svg" xmlns:xlink="http://www.w3.org/1999/xlink"><linearGradient id="linear-gradient" gradientUnits="userSpaceOnUse" x1="13.529" x2="534.79" y1="530.471" y2="9.21"><stop offset="0" stop-color="#003f8a"/><stop offset=".518" stop-color="#00d7df"/><stop offset="1" stop-color="#006df0"/></linearGradient><linearGradient id="linear-gradient-2" x1="-18.471" x2="502.79" xlink:href="#linear-gradient" y1="498.471" y2="-22.79"/><linearGradient id="linear-gradient-3" x1="7.529" x2="528.79" xlink:href="#linear-gradient" y1="524.471" y2="3.21"/><linearGradient id="linear-gradient-4" x1="121.529" x2="642.79" xlink:href="#linear-gradient" y1="638.471" y2="117.21"/><g id="Money-2" data-name="Money"><path d="m480 128h-112v-56a40.045 40.045 0 0 0 -40-40h-144a40.045 40.045 0 0 0 -40 40v56h-112a24.027 24.027 0 0 0 -24 24v272a24.027 24.027 0 0 0 24 24h271v-1.728a95.864 95.864 0 0 0 146 0v1.728h31a24.027 24.027 0 0 0 24-24v-272a24.027 24.027 0 0 0 -24-24zm-320-56a24.028 24.028 0 0 1 24-24h144a24.028 24.028 0 0 1 24 24v56h-192zm-136 80a8.009 8.009 0 0 1 8-8h448a8.009 8.009 0 0 1 8 8v80h-200v-24a8 8 0 0 0 -8-8h-48a8 8 0 0 0 -8 8v24h-200zm248 64v48h-32v-48zm104 248a80 80 0 1 1 80-80 80.091 80.091 0 0 1 -80 80zm112-40a8.009 8.009 0 0 1 -8 8h-20.887a96 96 0 1 0 -166.226 0h-260.887a8.009 8.009 0 0 1 -8-8v-176h200v24a8 8 0 0 0 8 8h48a8 8 0 0 0 8-8v-24h200z" fill="url(#linear-gradient)"/><path d="m96 400h-48a8 8 0 0 0 0 16h48a8 8 0 0 0 0-16z" fill="url(#linear-gradient-2)"/><path d="m128 400h-8a8 8 0 0 0 0 16h8a8 8 0 0 0 0-16z" fill="url(#linear-gradient-3)"/><path d="m400 360a8 8 0 0 0 0-16h-16a8 8 0 0 0 -16 0h-16a8 8 0 0 0 -8 8v32a8 8 0 0 0 8 8h40v16h-40a8 8 0 0 0 0 16h16a8 8 0 0 0 16 0h16a8 8 0 0 0 8-8v-32a8 8 0 0 0 -8-8h-40v-16z" fill="url(#linear-gradient-4)"/></g></svg>