<svg height="512" viewBox="0 0 512 512" width="512" xmlns="http://www.w3.org/2000/svg" xmlns:xlink="http://www.w3.org/1999/xlink"><linearGradient id="linear-gradient" gradientUnits="userSpaceOnUse" x1="1.647" x2="592.889" y1="526.353" y2="-64.889"><stop offset="0" stop-color="#003f8a"/><stop offset=".518" stop-color="#00d7df"/><stop offset="1" stop-color="#006df0"/></linearGradient><linearGradient id="linear-gradient-2" x1="-18.353" x2="572.889" xlink:href="#linear-gradient" y1="506.353" y2="-84.889"/><linearGradient id="linear-gradient-3" x1="-28.353" x2="562.889" xlink:href="#linear-gradient" y1="496.353" y2="-94.889"/><linearGradient id="linear-gradient-4" x1="-4.353" x2="586.889" xlink:href="#linear-gradient" y1="520.353" y2="-70.889"/><linearGradient id="linear-gradient-7" x1="-2.353" x2="588.889" xlink:href="#linear-gradient" y1="522.353" y2="-68.889"/><linearGradient id="linear-gradient-8" x1="3.647" x2="594.889" xlink:href="#linear-gradient" y1="528.353" y2="-62.889"/><g id="Online_payment" data-name="Online payment"><path d="m496 352h-24v-216a40.045 40.045 0 0 0 -40-40h-352a40.045 40.045 0 0 0 -40 40v216h-24a8 8 0 0 0 -8 8v16a40.045 40.045 0 0 0 40 40h416a40.045 40.045 0 0 0 40-40v-16a8 8 0 0 0 -8-8zm-440-216a24.027 24.027 0 0 1 24-24h352a24.027 24.027 0 0 1 24 24v216h-400zm244.9 232-2.666 8h-84.468l-2.666-8zm187.1 8a24.027 24.027 0 0 1 -24 24h-416a24.027 24.027 0 0 1 -24-24v-8h170.234l6.176 18.53a8 8 0 0 0 7.59 5.47h96a8 8 0 0 0 7.59-5.47l6.176-18.53h170.234z" fill="url(#linear-gradient)"/><path d="m448 336v-208a8 8 0 0 0 -8-8h-368a8 8 0 0 0 -8 8v208a8 8 0 0 0 8 8h368a8 8 0 0 0 8-8zm-16-8h-352v-192h352z" fill="url(#linear-gradient-2)"/><path d="m104 376h-40a8 8 0 0 0 0 16h40a8 8 0 0 0 0-16z" fill="url(#linear-gradient-3)"/><path d="m136 376h-8a8 8 0 0 0 0 16h8a8 8 0 0 0 0-16z" fill="url(#linear-gradient-4)"/><path d="m168 304h176a24.028 24.028 0 0 0 24-24v-96a24.028 24.028 0 0 0 -24-24h-176a24.028 24.028 0 0 0 -24 24v96a24.028 24.028 0 0 0 24 24zm184-96h-192v-8h192zm0 72a8.009 8.009 0 0 1 -8 8h-176a8.009 8.009 0 0 1 -8-8v-56h192zm-184-104h176a8.009 8.009 0 0 1 8 8h-192a8.009 8.009 0 0 1 8-8z" fill="url(#linear-gradient-2)"/><path d="m184 280h56a8 8 0 0 0 8-8v-32a8 8 0 0 0 -8-8h-56a8 8 0 0 0 -8 8v32a8 8 0 0 0 8 8zm8-32h40v16h-40z" fill="url(#linear-gradient-3)"/><path d="m264 248h32a8 8 0 0 0 0-16h-32a8 8 0 0 0 0 16z" fill="url(#linear-gradient-7)"/><path d="m264 272h8a8 8 0 0 0 0-16h-8a8 8 0 0 0 0 16z" fill="url(#linear-gradient-8)"/></g></svg>