<svg height="512" viewBox="0 0 512 512" width="512" xmlns="http://www.w3.org/2000/svg" xmlns:xlink="http://www.w3.org/1999/xlink"><linearGradient id="linear-gradient" gradientUnits="userSpaceOnUse" x1="-20.824" x2="413.774" y1="384.824" y2="-49.774"><stop offset="0" stop-color="#003f8a"/><stop offset=".518" stop-color="#00d7df"/><stop offset="1" stop-color="#006df0"/></linearGradient><linearGradient id="linear-gradient-2" x1="11.176" x2="445.774" xlink:href="#linear-gradient" y1="416.824" y2="-17.774"/><linearGradient id="linear-gradient-3" x1="-38.824" x2="395.774" xlink:href="#linear-gradient" y1="366.824" y2="-67.774"/><linearGradient id="linear-gradient-4" x1="54.168" x2="488.766" xlink:href="#linear-gradient" y1="459.815" y2="25.217"/><linearGradient id="linear-gradient-5" x1="75.176" x2="509.774" xlink:href="#linear-gradient" y1="480.824" y2="46.226"/><linearGradient id="linear-gradient-6" x1="111.176" x2="545.774" xlink:href="#linear-gradient" y1="516.824" y2="82.226"/><g id="Search"><path d="m120 272h-72a8 8 0 0 0 0 16h72a8 8 0 0 0 0-16z" fill="url(#linear-gradient)"/><path d="m152 272h-8a8 8 0 0 0 0 16h8a8 8 0 0 0 0-16z" fill="url(#linear-gradient-2)"/><path d="m216 184a8 8 0 0 0 -8-8h-160a8 8 0 0 0 -8 8v32a8 8 0 0 0 8 8h160a8 8 0 0 0 8-8zm-16 24h-144v-16h144z" fill="url(#linear-gradient-3)"/><path d="m501.568 435.627-90.195-90.195a8 8 0 0 0 -11.314 0l-5.657 5.657-3.282-3.283a104.621 104.621 0 0 0 21.119-27.806h3.761a40.045 40.045 0 0 0 40-40v-192a40.045 40.045 0 0 0 -40-40h-368a40.045 40.045 0 0 0 -40 40v192a40.045 40.045 0 0 0 40 40h179.761a103.9 103.9 0 0 0 150.815 37.889l4.513 4.513-5.657 5.657a8 8 0 0 0 0 11.314l90.2 90.2a8 8 0 0 0 11.314 0l22.627-22.627a8 8 0 0 0 -.005-11.319zm-477.568-323.627h416v32h-416zm0-24a24.027 24.027 0 0 1 24-24h368a24.027 24.027 0 0 1 24 24v8h-416zm24 216a24.027 24.027 0 0 1 -24-24v-120h416v120a24.03 24.03 0 0 1 -20.98 23.8 104 104 0 1 0 -197.976.2zm184-32a88 88 0 1 1 88 88 88.1 88.1 0 0 1 -88-88zm241.284 180.6-78.884-78.884 11.316-11.316 78.884 78.884z" fill="url(#linear-gradient-4)"/><path d="m309.657 246.343a8 8 0 0 0 -11.314 0l-14.343 14.344-14.343-14.344a8 8 0 0 0 -11.314 11.314l14.344 14.343-14.344 14.343a8 8 0 0 0 11.314 11.314l14.343-14.344 14.343 14.344a8 8 0 0 0 11.314-11.314l-14.344-14.343 14.344-14.343a8 8 0 0 0 0-11.314z" fill="url(#linear-gradient-5)"/><path d="m381.657 286.343-14.344-14.343 14.344-14.343a8 8 0 0 0 -11.314-11.314l-14.343 14.344-14.343-14.344a8 8 0 0 0 -11.314 11.314l14.344 14.343-14.344 14.343a8 8 0 0 0 11.314 11.314l14.343-14.344 14.343 14.344a8 8 0 0 0 11.314-11.314z" fill="url(#linear-gradient-6)"/></g></svg>