<svg height="512" viewBox="0 0 512 512" width="512" xmlns="http://www.w3.org/2000/svg" xmlns:xlink="http://www.w3.org/1999/xlink"><linearGradient id="linear-gradient" gradientUnits="userSpaceOnUse" x1="62.118" x2="423.99" y1="489.882" y2="128.01"><stop offset="0" stop-color="#003f8a"/><stop offset=".518" stop-color="#00d7df"/><stop offset="1" stop-color="#006df0"/></linearGradient><linearGradient id="linear-gradient-2" x1="244.118" x2="605.99" xlink:href="#linear-gradient" y1="671.882" y2="310.01"/><linearGradient id="linear-gradient-3" x1="114.118" x2="475.99" xlink:href="#linear-gradient" y1="541.882" y2="180.01"/><g id="Shop"><path d="m464 416h-40v-137.376a23.992 23.992 0 0 0 32-22.624v-24c0-.08-.01-.157-.012-.237q0-.177-.018-.354c-.014-.19-.036-.377-.063-.563-.014-.1-.026-.195-.044-.292-.043-.235-.1-.465-.161-.692-.011-.04-.016-.082-.028-.123l-.024-.082c-.006-.018-.011-.037-.017-.055l-32.959-111.863a8 8 0 0 0 -7.674-5.739h-23v-24a8 8 0 0 0 -8-8h-256a8 8 0 0 0 -8 8v24h-24a8 8 0 0 0 -7.692 5.8l-32 112c-.016.055-.023.111-.037.166-.054.2-.1.409-.139.619-.018.1-.033.207-.047.311q-.038.27-.057.544c-.008.119-.015.238-.018.357 0 .068-.01.133-.01.2v24a23.992 23.992 0 0 0 32 22.624v137.379h-72a8 8 0 0 0 0 16h448a8 8 0 0 0 0-16zm-88-160a8 8 0 0 1 -16 0v-16h16zm-32 0a8 8 0 0 1 -16 0v-16h16zm-32 0a8 8 0 0 1 -16 0v-16h16zm-32 0a8 8 0 0 1 -16 0v-16h16zm-32 0a8 8 0 0 1 -16 0v-16h16zm-32 0a8 8 0 0 1 -16 0v-16h16zm-32 0a8 8 0 0 1 -16 0v-16h16zm-32 0a8 8 0 0 1 -16 0v-16h16zm-32 0a8 8 0 0 1 -16 0v-16h16zm272-16h16v16a8 8 0 0 1 -16 0zm48 16a8 8 0 0 1 -16 0v-16h16zm-304-160h240v16h-240zm-33.965 32h306.982l28.283 96h-362.694zm-22.035 136a8.009 8.009 0 0 1 -8-8v-16h16v16a8.009 8.009 0 0 1 -8 8zm64 152v-112h64v112zm80 0v-120a8 8 0 0 0 -8-8h-80a8 8 0 0 0 -8 8v120h-24v-137.376a23.943 23.943 0 0 0 24-4.755 23.943 23.943 0 0 0 32 0 23.943 23.943 0 0 0 32 0 23.943 23.943 0 0 0 32 0 23.943 23.943 0 0 0 32 0 23.943 23.943 0 0 0 32 0 23.943 23.943 0 0 0 32 0 23.943 23.943 0 0 0 32 0 23.943 23.943 0 0 0 32 0 23.943 23.943 0 0 0 24 4.755v137.376z" fill="url(#linear-gradient)"/><path d="m496 416h-8a8 8 0 0 0 0 16h8a8 8 0 0 0 0-16z" fill="url(#linear-gradient-2)"/><path d="m376 288h-104a8 8 0 0 0 -8 8v72a8 8 0 0 0 8 8h104a8 8 0 0 0 8-8v-72a8 8 0 0 0 -8-8zm-8 16v32h-88v-32zm0 56h-88v-8h88z" fill="url(#linear-gradient-3)"/></g></svg>