<svg height="512" viewBox="0 0 512 512" width="512" xmlns="http://www.w3.org/2000/svg" xmlns:xlink="http://www.w3.org/1999/xlink"><linearGradient id="linear-gradient" gradientUnits="userSpaceOnUse" x1="-5.529" x2="514.252" y1="477.529" y2="-42.252"><stop offset="0" stop-color="#003f8a"/><stop offset=".518" stop-color="#00d7df"/><stop offset="1" stop-color="#006df0"/></linearGradient><linearGradient id="linear-gradient-2" x1="62.471" x2="582.252" xlink:href="#linear-gradient" y1="545.529" y2="25.748"/><linearGradient id="linear-gradient-3" x1="60.471" x2="580.252" xlink:href="#linear-gradient" y1="543.529" y2="23.748"/><linearGradient id="linear-gradient-4" x1="88.721" x2="608.502" xlink:href="#linear-gradient" y1="571.779" y2="51.998"/><g id="Smartphone"><path d="m360 160.34v-112.34a40.04 40.04 0 0 0 -40-40h-208a40.04 40.04 0 0 0 -40 40v416a40.04 40.04 0 0 0 40 40h208a40.04 40.04 0 0 0 40-40v-112.34a95.993 95.993 0 0 0 0-191.32zm-98.246-136.34-4 16h-83.508l-4-16zm82.246 440a24.032 24.032 0 0 1 -24 24h-208a24.032 24.032 0 0 1 -24-24v-416a24.032 24.032 0 0 1 24-24h41.754l6.485 25.94a8 8 0 0 0 7.761 6.06h96a8 8 0 0 0 7.761-6.06l6.485-25.94h41.754a24.032 24.032 0 0 1 24 24v112.34a95.993 95.993 0 0 0 0 191.32zm16-128.39q-3.945.39-8 .39t-8-.39a80.012 80.012 0 0 1 0-159.22q3.945-.39 8-.39t8 .39a80.012 80.012 0 0 1 0 159.22z" fill="url(#linear-gradient)"/><path d="m376 232a8 8 0 0 0 0-16h-16a8 8 0 0 0 -16 0h-16a8 8 0 0 0 -8 8v32a8 8 0 0 0 8 8h40v16h-40a8 8 0 0 0 0 16h16a8 8 0 0 0 16 0h16a8 8 0 0 0 8-8v-32a8 8 0 0 0 -8-8h-40v-16z" fill="url(#linear-gradient-2)"/><path d="m160 464h-56a8 8 0 0 0 0 16h56a8 8 0 0 0 0-16z" fill="url(#linear-gradient-3)"/><path d="m192 464h-7a8 8 0 0 0 0 16h7a8 8 0 0 0 0-16z" fill="url(#linear-gradient-4)"/></g></svg>