<svg height="512" viewBox="0 0 512 512" width="512" xmlns="http://www.w3.org/2000/svg" xmlns:xlink="http://www.w3.org/1999/xlink"><linearGradient id="linear-gradient" gradientUnits="userSpaceOnUse" x1="29.882" x2="536.619" y1="482.118" y2="-24.619"><stop offset="0" stop-color="#003f8a"/><stop offset=".518" stop-color="#00d7df"/><stop offset="1" stop-color="#006df0"/></linearGradient><linearGradient id="linear-gradient-4" x1="29.882" x2="536.619" xlink:href="#linear-gradient" y1="482.118" y2="-24.619"/><linearGradient id="linear-gradient-5" x1="-52.118" x2="454.619" xlink:href="#linear-gradient" y1="400.118" y2="-106.619"/><g id="Target"><g fill="url(#linear-gradient)"><path d="m256 160a96 96 0 1 0 96 96 96.108 96.108 0 0 0 -96-96zm0 176a80 80 0 1 1 80-80 80.091 80.091 0 0 1 -80 80z"/><path d="m280 232a8 8 0 0 0 0-16h-16a8 8 0 0 0 -16 0h-16a8 8 0 0 0 -8 8v32a8 8 0 0 0 8 8h40v16h-40a8 8 0 0 0 0 16h16a8 8 0 0 0 16 0h16a8 8 0 0 0 8-8v-32a8 8 0 0 0 -8-8h-40v-16z"/><path d="m256 128a128 128 0 1 0 128 128 128.146 128.146 0 0 0 -128-128zm0 240a112 112 0 1 1 112-112 112.127 112.127 0 0 1 -112 112z"/></g><path d="m496 248h-16.156a223.951 223.951 0 0 0 -215.844-215.844v-16.156a8 8 0 0 0 -16 0v16.156a223.951 223.951 0 0 0 -215.844 215.844h-16.156a8 8 0 0 0 0 16h16.156a223.951 223.951 0 0 0 215.844 215.844v16.156a8 8 0 0 0 16 0v-16.156a223.951 223.951 0 0 0 215.844-215.844h16.156a8 8 0 0 0 0-16zm-232 215.831v-15.831a8 8 0 0 0 -16 0v15.831c-108.341-4.119-195.712-91.49-199.831-199.831h15.831a8 8 0 0 0 0-16h-15.831c4.119-108.341 91.49-195.712 199.831-199.831v15.831a8 8 0 0 0 16 0v-15.831c108.341 4.119 195.712 91.49 199.831 199.831h-15.831a8 8 0 0 0 0 16h15.831c-4.119 108.341-91.49 195.712-199.831 199.831z" fill="url(#linear-gradient-4)"/><path d="m256 104a8 8 0 0 0 8-8v-8a8 8 0 0 0 -16 0v8a8 8 0 0 0 8 8z" fill="url(#linear-gradient-5)"/></g></svg>