<svg height="512" viewBox="0 0 512 512" width="512" xmlns="http://www.w3.org/2000/svg" xmlns:xlink="http://www.w3.org/1999/xlink"><linearGradient id="linear-gradient" gradientUnits="userSpaceOnUse" x1="56.105" x2="594.541" y1="537.281" y2="-1.155"><stop offset="0" stop-color="#003f8a"/><stop offset=".518" stop-color="#00d7df"/><stop offset="1" stop-color="#006df0"/></linearGradient><linearGradient id="linear-gradient-2" x1="163.412" x2="701.848" xlink:href="#linear-gradient" y1="644.588" y2="106.152"/><linearGradient id="linear-gradient-3" x1="15.412" x2="553.848" xlink:href="#linear-gradient" y1="496.588" y2="-41.848"/><linearGradient id="linear-gradient-4" x1="45.412" x2="583.848" xlink:href="#linear-gradient" y1="526.588" y2="-11.848"/><linearGradient id="linear-gradient-5" x1="-68.588" x2="469.848" xlink:href="#linear-gradient" y1="412.588" y2="-125.848"/><g id="Wallet"><path d="m496 304h-24v-112a8 8 0 0 0 -8-8h-416a40.045 40.045 0 0 0 -40 40v240a40.045 40.045 0 0 0 40 40h416a8 8 0 0 0 8-8v-112h24a8 8 0 0 0 8-8v-64a8 8 0 0 0 -8-8zm-448-104h408v16h-430.624a24.039 24.039 0 0 1 22.624-16zm408 288h-408a24.039 24.039 0 0 1 -22.624-16h430.624zm0-32h-432v-224h432v72h-32a24.027 24.027 0 0 0 -24 24v32a24.027 24.027 0 0 0 24 24h32zm32-88h-64a8.009 8.009 0 0 1 -8-8v-32a8.009 8.009 0 0 1 8-8h64z" fill="url(#linear-gradient)"/><circle cx="464" cy="344" fill="url(#linear-gradient-2)" r="8"/><path d="m112 424h-64a8 8 0 0 0 0 16h64a8 8 0 0 0 0-16z" fill="url(#linear-gradient-3)"/><path d="m144 424h-8a8 8 0 0 0 0 16h8a8 8 0 0 0 0-16z" fill="url(#linear-gradient-4)"/><g fill="url(#linear-gradient-5)"><path d="m256 168a80 80 0 1 0 -80-80 80.091 80.091 0 0 0 80 80zm0-144a64 64 0 1 1 -64 64 64.072 64.072 0 0 1 64-64z"/><path d="m232 112a8 8 0 0 0 0 16h16a8 8 0 0 0 16 0h16a8 8 0 0 0 8-8v-32a8 8 0 0 0 -8-8h-40v-16h40a8 8 0 0 0 0-16h-16a8 8 0 0 0 -16 0h-16a8 8 0 0 0 -8 8v32a8 8 0 0 0 8 8h40v16z"/></g></g></svg>